<svg width="14" height="14" viewBox="0 0 14 14" fill="none" xmlns="http://www.w3.org/2000/svg">
<path fill-rule="evenodd" clip-rule="evenodd" d="M2.33333 1.5C1.8731 1.5 1.5 1.8731 1.5 2.33333V11.6667C1.5 12.1269 1.8731 12.5 2.33333 12.5H2.79289L8.70378 6.58911C9.04758 6.24542 9.51387 6.05229 10 6.05229C10.4861 6.05229 10.9524 6.24536 11.2962 6.58906L12.5 7.79289V2.33333C12.5 1.8731 12.1269 1.5 11.6667 1.5H2.33333ZM13.5 8.99951V2.33333C13.5 1.32081 12.6792 0.5 11.6667 0.5H2.33333C1.32081 0.5 0.5 1.32081 0.5 2.33333V11.6667C0.5 12.6792 1.32081 13.5 2.33333 13.5H2.99951C2.99918 13.5 2.99984 13.5 2.99951 13.5H11.6667C12.6792 13.5 13.5 12.6792 13.5 11.6667V8.99951C13.5 8.99984 13.5 8.99918 13.5 8.99951ZM12.5 9.20711L10.5892 7.29627C10.5891 7.29626 10.5892 7.29629 10.5892 7.29627C10.4329 7.14008 10.2209 7.05229 10 7.05229C9.77905 7.05229 9.56716 7.14003 9.41089 7.29622C9.41087 7.29624 9.41091 7.2962 9.41089 7.29622L4.20711 12.5H11.6667C12.1269 12.5 12.5 12.1269 12.5 11.6667V9.20711ZM5 4.16667C4.53976 4.16667 4.16667 4.53976 4.16667 5C4.16667 5.46024 4.53976 5.83333 5 5.83333C5.46024 5.83333 5.83333 5.46024 5.83333 5C5.83333 4.53976 5.46024 4.16667 5 4.16667ZM3.16667 5C3.16667 3.98748 3.98748 3.16667 5 3.16667C6.01252 3.16667 6.83333 3.98748 6.83333 5C6.83333 6.01252 6.01252 6.83333 5 6.83333C3.98748 6.83333 3.16667 6.01252 3.16667 5Z" fill="#1F46C1"/>
</svg>
