<svg class="imageIcon" width="16" height="16" viewBox="0 0 19 19" fill="none" xmlns="http://www.w3.org/2000/svg">
  <g id="Group">
    <path id="Vector" d="M12.3333 4.1665H17.3333M14.8333 1.6665V6.6665M16.5 9.58317V15.8332C16.5 16.2752 16.3244 16.6991 16.0118 17.0117C15.6993 17.3242 15.2754 17.4998 14.8333 17.4998H3.16667C2.72464 17.4998 2.30072 17.3242 1.98816 17.0117C1.67559 16.6991 1.5 16.2752 1.5 15.8332V4.1665C1.5 3.72448 1.67559 3.30055 1.98816 2.98799C2.30072 2.67543 2.72464 2.49984 3.16667 2.49984H9.41667" stroke="#BBBBBB" stroke-width="1.7" stroke-linecap="round" stroke-linejoin="round"/>
    <path id="Vector_2" d="M16.5 12.4998L13.9283 9.92816C13.6158 9.61571 13.1919 9.44019 12.75 9.44019C12.3081 9.44019 11.8842 9.61571 11.5717 9.92816L4 17.4998" stroke="#BBBBBB" stroke-width="1.7" stroke-linecap="round" stroke-linejoin="round"/>
    <path id="Vector_3" d="M6.49999 9.16646C7.42047 9.16646 8.16666 8.42027 8.16666 7.4998C8.16666 6.57932 7.42047 5.83313 6.49999 5.83313C5.57952 5.83313 4.83333 6.57932 4.83333 7.4998C4.83333 8.42027 5.57952 9.16646 6.49999 9.16646Z" stroke="#BBBBBB" stroke-width="1.7" stroke-linecap="round" stroke-linejoin="round"/>
  </g>
</svg>