<svg width="12" height="8" viewBox="0 0 12 8" fill="none" xmlns="http://www.w3.org/2000/svg">
<g id="Vector">
<path d="M0.291889 2.26525C0.471922 2.40775 0.699095 2.44025 0.902687 2.34776C1.65494 2.00524 3.31375 1.60024 5.96913 2.72276C7.33005 3.29775 8.43806 3.49275 9.31248 3.49275C10.5319 3.49275 11.297 3.11775 11.6635 2.87776C12.3629 2.39865 11.8678 1.1305 11.0934 1.46526C10.3648 1.80026 8.75097 2.19525 6.11487 1.08026C2.86154 -0.297245 0.996989 0.510249 0.345471 0.922757C-0.0861521 1.17664 -0.117948 1.96129 0.291889 2.26525Z" fill="#E3E3E3"/>
<path d="M11.7064 5.74525C11.5264 5.60024 11.297 5.57024 11.0934 5.66524C10.3648 5.99775 8.75097 6.39275 6.11486 5.27775C2.86154 3.90025 0.996984 4.71024 0.345466 5.12025C-0.36558 5.58924 0.120725 6.87787 0.902702 6.54524C1.65494 6.20275 3.31374 5.79775 5.96913 6.92275C7.33005 7.49775 8.43806 7.69025 9.31248 7.69025C10.5319 7.69025 11.297 7.31526 11.6635 7.07525C11.8714 6.94026 12 6.67774 12 6.39524C12 6.13274 11.8907 5.89025 11.7064 5.74525Z" fill="#E3E3E3"/>
</g>
</svg>
