<svg width="16" height="16" viewBox="0 0 16 16" fill="none" xmlns="http://www.w3.org/2000/svg">
<g clip-path="url(#clip0_25084_35383)">
<path fill-rule="evenodd" clip-rule="evenodd" d="M10.7825 5.79589L6.93655 9.41952L5.24897 7.68503C5.11366 7.54102 4.92759 7.45879 4.73267 7.45716C4.53793 7.45534 4.35046 7.53407 4.21266 7.6757C4.07486 7.81734 3.99826 8.01003 4.00003 8.21018C4.00162 8.41052 4.08162 8.60177 4.22174 8.74084L6.40115 10.9809C6.67621 11.2636 7.11908 11.2735 7.40585 11.0033L11.7647 6.89659C11.9067 6.76261 11.9912 6.57631 11.9993 6.37849C12.0077 6.18053 11.9392 5.98746 11.809 5.84149C11.6787 5.69547 11.4974 5.60867 11.3049 5.60031C11.1123 5.59173 10.9245 5.6621 10.7825 5.79589Z" fill="#E3E3E3"/>
</g>
<rect x="0.5" y="0.5" width="15" height="15" rx="3.5" stroke="#E3E3E3"/>
<defs>
<clipPath id="clip0_25084_35383">
<rect width="16" height="16" rx="4" fill="white"/>
</clipPath>
</defs>
</svg>
