<svg width="16" height="16" viewBox="0 0 16 16" fill="none" xmlns="http://www.w3.org/2000/svg">
<g id="codebase">
<path id="Vector" fill-rule="evenodd" clip-rule="evenodd" d="M3.19352 7.5013H5.39214C5.50912 5.99325 6.01883 4.54629 6.86447 3.30242C4.90083 3.7758 3.40454 5.44807 3.19352 7.5013ZM8.0013 3.44089C7.0838 4.60942 6.52552 6.02046 6.39554 7.5013H9.60706C9.47708 6.02046 8.9188 4.60942 8.0013 3.44089ZM9.60706 8.5013C9.47708 9.98215 8.9188 11.3932 8.0013 12.5617C7.0838 11.3932 6.52552 9.98215 6.39554 8.5013H9.60706ZM5.39214 8.5013H3.19352C3.40454 10.5545 4.90083 12.2268 6.86447 12.7002C6.01883 11.4563 5.50912 10.0094 5.39214 8.5013ZM9.13814 12.7002C9.98377 11.4563 10.4935 10.0094 10.6105 8.5013H12.8091C12.5981 10.5545 11.1018 12.2268 9.13814 12.7002ZM12.8091 7.5013H10.6105C10.4935 5.99325 9.98377 4.54629 9.13814 3.30242C11.1018 3.7758 12.5981 5.44807 12.8091 7.5013ZM2.16797 8.0013C2.16797 4.77964 4.77964 2.16797 8.0013 2.16797C11.223 2.16797 13.8346 4.77964 13.8346 8.0013C13.8346 11.223 11.223 13.8346 8.0013 13.8346C4.77964 13.8346 2.16797 11.223 2.16797 8.0013Z" fill="#E3E3E3"/>
</g>
</svg>
