<svg width="16" height="17" viewBox="0 0 16 17" fill="none" xmlns="http://www.w3.org/2000/svg">
<path fill-rule="evenodd" clip-rule="evenodd" d="M6.2 2.82129C5.88174 2.82129 5.57652 2.94772 5.35147 3.17276C5.12643 3.3978 5 3.70303 5 4.02129V5.22129H6.2V4.02129H12.8V10.6213H11.6V11.8213H12.8C13.1183 11.8213 13.4235 11.6949 13.6485 11.4698C13.8736 11.2448 14 10.9395 14 10.6213V4.02129C14 3.70303 13.8736 3.3978 13.6485 3.17276C13.4235 2.94772 13.1183 2.82129 12.8 2.82129H6.2ZM3.2 5.82129C2.88174 5.82129 2.57652 5.94772 2.35147 6.17276C2.12643 6.3978 2 6.70303 2 7.02129V13.6213C2 13.9395 2.12643 14.2448 2.35147 14.4698C2.57652 14.6949 2.88174 14.8213 3.2 14.8213H9.8C10.1183 14.8213 10.4235 14.6949 10.6485 14.4698C10.8736 14.2448 11 13.9395 11 13.6213V7.02129C11 6.70303 10.8736 6.3978 10.6485 6.17276C10.4235 5.94772 10.1183 5.82129 9.8 5.82129H3.2ZM3.2 7.02129H9.8V13.6213H3.2V7.02129Z" fill="#7E7885"/>
</svg>
