<svg width="16" height="16" viewBox="0 0 16 16" fill="none" xmlns="http://www.w3.org/2000/svg">
<g id="icons">
<path id="Union" fill-rule="evenodd" clip-rule="evenodd" d="M9.765 1.735L13.265 5.235C13.3353 5.30526 13.3749 5.40058 13.375 5.5V13.5C13.375 13.7321 13.2828 13.9546 13.1187 14.1187C12.9546 14.2828 12.7321 14.375 12.5 14.375H3.5C3.26794 14.375 3.04538 14.2828 2.88128 14.1187C2.71719 13.9546 2.625 13.7321 2.625 13.5V2.5C2.625 2.26794 2.71719 2.04538 2.88128 1.88128C3.04538 1.71719 3.26794 1.625 3.5 1.625H9.5C9.59942 1.62509 9.69474 1.66465 9.765 1.735ZM12.095 5.125L9.875 2.905V5.125H12.095ZM3.5 13.625H12.5C12.5332 13.625 12.5649 13.6118 12.5884 13.5884C12.6118 13.5649 12.625 13.5332 12.625 13.5V5.875H9.5C9.40054 5.875 9.30516 5.83549 9.23483 5.76516C9.16451 5.69484 9.125 5.59946 9.125 5.5V2.375H3.5C3.46685 2.375 3.43505 2.38817 3.41161 2.41161C3.38817 2.43505 3.375 2.46685 3.375 2.5V13.5C3.375 13.5332 3.38817 13.5649 3.41161 13.5884C3.43505 13.6118 3.46685 13.625 3.5 13.625ZM5 8H11V7H5V8ZM5 10H11V9H5V10ZM11 12H5V11H11V12Z" fill="#E3E3E3"/>
</g>
</svg>
