<svg width="15" height="13" viewBox="0 0 15 13" fill="none" xmlns="http://www.w3.org/2000/svg">
<path d="M0.416992 1.54167C0.416992 1.16594 0.566248 0.805609 0.831924 0.539932C1.0976 0.274255 1.45794 0.125 1.83366 0.125H7.50032V1.54167H1.83366V5.79167H7.50032V7.20833H1.83366V12.875H0.416992V1.54167ZM14.5837 5.08333V6.59633C14.5837 6.80503 14.5376 7.01116 14.4487 7.19998C14.3598 7.3888 14.2303 7.55564 14.0694 7.68858L12.5082 8.97917L14.0694 10.2697C14.2303 10.4027 14.3598 10.5695 14.4487 10.7584C14.5376 10.9472 14.5837 11.1533 14.5837 11.362V12.875H13.167V11.362L11.3962 9.89788L9.62532 11.362V12.875H8.20866V11.362C8.20863 11.1533 8.25471 10.9472 8.34361 10.7584C8.43251 10.5695 8.56203 10.4027 8.72291 10.2697L10.2841 8.97917L8.72291 7.68858C8.56203 7.55564 8.43251 7.3888 8.34361 7.19998C8.25471 7.01116 8.20863 6.80503 8.20866 6.59633V5.08333H9.62532V6.59633L11.3962 8.06046L13.167 6.59633V5.08333H14.5837Z" fill="#BAB4C2"/>
</svg>
