<svg width="13" height="11" viewBox="0 0 13 11" fill="none" xmlns="http://www.w3.org/2000/svg">
<path fill-rule="evenodd" clip-rule="evenodd" d="M7.49906 10C9.98434 10 11.9991 7.98528 11.9991 5.5C11.9991 3.01472 9.98434 1 7.49906 1C5.18279 1 3.27525 2.75002 3.02653 5H4.5L2.5 7L0.5 5H2.02148C2.2741 2.19675 4.63004 0 7.49906 0C10.5366 0 12.9991 2.46243 12.9991 5.5C12.9991 8.53757 10.5366 11 7.49906 11C5.81606 11 4.30962 10.2441 3.30074 9.05322L4.06414 8.40726C4.88959 9.38155 6.1221 10 7.49906 10ZM7 2H8V5H10V6H8H7V5V2Z" fill="currentColor"/>
</svg>
