<svg width="18" height="18" viewBox="0 0 18 18" fill="none" xmlns="http://www.w3.org/2000/svg">
<path d="M9.62375 8.375C9.62375 8.20924 9.5579 8.05027 9.44069 7.93306C9.32348 7.81585 9.16451 7.75 8.99875 7.75C8.83299 7.75 8.67402 7.81585 8.55681 7.93306C8.4396 8.05027 8.37375 8.20924 8.37375 8.375V12.125C8.37375 12.2908 8.4396 12.4497 8.55681 12.5669C8.67402 12.6842 8.83299 12.75 8.99875 12.75C9.16451 12.75 9.32348 12.6842 9.44069 12.5669C9.5579 12.4497 9.62375 12.2908 9.62375 12.125V8.375ZM9.93625 5.875C9.93625 6.12347 9.83754 6.36177 9.66185 6.53747C9.48615 6.71317 9.24785 6.81187 8.99937 6.81187C8.7509 6.81187 8.5126 6.71317 8.3369 6.53747C8.16121 6.36177 8.0625 6.12347 8.0625 5.875C8.0625 5.62669 8.16114 5.38855 8.33672 5.21297C8.5123 5.03739 8.75044 4.93875 8.99875 4.93875C9.24706 4.93875 9.4852 5.03739 9.66078 5.21297C9.83636 5.38855 9.93625 5.62669 9.93625 5.875ZM9 0.25C6.67936 0.25 4.45376 1.17187 2.81282 2.81282C1.17187 4.45376 0.25 6.67936 0.25 9C0.25 11.3206 1.17187 13.5462 2.81282 15.1872C4.45376 16.8281 6.67936 17.75 9 17.75C11.3206 17.75 13.5462 16.8281 15.1872 15.1872C16.8281 13.5462 17.75 11.3206 17.75 9C17.75 6.67936 16.8281 4.45376 15.1872 2.81282C13.5462 1.17187 11.3206 0.25 9 0.25ZM1.5 9C1.5 8.01509 1.69399 7.03982 2.0709 6.12987C2.44781 5.21993 3.00026 4.39314 3.6967 3.6967C4.39314 3.00026 5.21993 2.44781 6.12987 2.0709C7.03982 1.69399 8.01509 1.5 9 1.5C9.98491 1.5 10.9602 1.69399 11.8701 2.0709C12.7801 2.44781 13.6069 3.00026 14.3033 3.6967C14.9997 4.39314 15.5522 5.21993 15.9291 6.12987C16.306 7.03982 16.5 8.01509 16.5 9C16.5 10.9891 15.7098 12.8968 14.3033 14.3033C12.8968 15.7098 10.9891 16.5 9 16.5C7.01088 16.5 5.10322 15.7098 3.6967 14.3033C2.29018 12.8968 1.5 10.9891 1.5 9Z" fill="#7E7885"/>
</svg>
