<svg width="12" height="14" viewBox="0 0 12 14" fill="none" xmlns="http://www.w3.org/2000/svg">
<path d="M6.38725 13.2464C5.37305 13.2464 4.4765 13.1072 3.69762 12.8288C2.91874 12.5537 2.26415 12.1477 1.73384 11.6108C1.20354 11.0739 0.802498 10.416 0.530717 9.63707C0.258937 8.85819 0.123047 7.96662 0.123047 6.96236C0.123047 5.99124 0.260594 5.12287 0.535689 4.35724C0.814098 3.59162 1.2168 2.942 1.74379 2.40838C2.27409 1.87145 2.91708 1.46212 3.67276 1.1804C4.43176 0.898674 5.29019 0.757812 6.24805 0.757812C7.17939 0.757812 7.99473 0.910275 8.69407 1.2152C9.39672 1.51681 9.98337 1.92614 10.454 2.44318C10.928 2.95691 11.2826 3.53527 11.5179 4.17827C11.7566 4.82126 11.8759 5.48414 11.8759 6.1669C11.8759 6.64749 11.8527 7.13471 11.8063 7.62855C11.7599 8.1224 11.6621 8.57647 11.513 8.99077C11.3638 9.40175 11.1335 9.73319 10.8219 9.98509C10.5137 10.237 10.0961 10.3629 9.56907 10.3629C9.33706 10.3629 9.08185 10.3265 8.80344 10.2536C8.52504 10.1806 8.27811 10.0597 8.06268 9.89062C7.84724 9.72159 7.71964 9.49456 7.67986 9.20952H7.62021C7.54066 9.40175 7.41803 9.58404 7.25231 9.75639C7.0899 9.92874 6.87612 10.0663 6.61097 10.169C6.34914 10.2718 6.0293 10.3165 5.65146 10.3033C5.22058 10.2867 4.84109 10.1906 4.51296 10.0149C4.18484 9.83594 3.90974 9.59399 3.68768 9.28906C3.46893 8.98082 3.30321 8.62453 3.19052 8.22017C3.08114 7.8125 3.02646 7.37334 3.02646 6.9027C3.02646 6.45526 3.09274 6.04593 3.22532 5.67472C3.3579 5.3035 3.54184 4.97869 3.77717 4.70028C4.0158 4.42188 4.29421 4.19981 4.61239 4.03409C4.93389 3.86506 5.28024 3.76065 5.65146 3.72088C5.9829 3.68774 6.2845 3.70265 6.55629 3.76563C6.82807 3.82528 7.05179 3.91643 7.22745 4.03906C7.40311 4.15838 7.51415 4.29096 7.56055 4.43679H7.62021V3.87997H8.67418V8.37429C8.67418 8.6527 8.75207 8.89796 8.90785 9.11009C9.06363 9.32221 9.29066 9.42827 9.58896 9.42827C9.92702 9.42827 10.1855 9.31226 10.3645 9.08026C10.5468 8.84825 10.6711 8.49029 10.7374 8.00639C10.807 7.52249 10.8418 6.9027 10.8418 6.14702C10.8418 5.70289 10.7805 5.26539 10.6578 4.83452C10.5385 4.40033 10.3562 3.99432 10.111 3.61648C9.86902 3.23864 9.56244 2.90554 9.19123 2.61719C8.82002 2.32884 8.38417 2.10346 7.8837 1.94105C7.38654 1.77533 6.82144 1.69247 6.18839 1.69247C5.40951 1.69247 4.71183 1.81345 4.09535 2.0554C3.48219 2.29403 2.96017 2.6437 2.5293 3.1044C2.10174 3.56179 1.77527 4.11861 1.54989 4.77486C1.32783 5.42779 1.2168 6.17022 1.2168 7.00213C1.2168 7.8473 1.32783 8.59801 1.54989 9.25426C1.77527 9.91051 2.10671 10.464 2.54421 10.9148C2.98503 11.3655 3.53024 11.7069 4.17986 11.9389C4.82949 12.1742 5.57854 12.2919 6.42702 12.2919C6.79161 12.2919 7.15122 12.2571 7.50586 12.1875C7.8605 12.1179 8.17371 12.0417 8.44549 11.9588C8.71727 11.8759 8.91282 11.8146 9.03214 11.7749L9.31055 12.6896C9.10505 12.7758 8.83659 12.862 8.50515 12.9482C8.17702 13.0343 7.8257 13.1056 7.45117 13.1619C7.07996 13.2183 6.72532 13.2464 6.38725 13.2464ZM5.81055 9.28906C6.25468 9.28906 6.61429 9.19957 6.88938 9.0206C7.16448 8.84162 7.365 8.5715 7.49094 8.21023C7.61689 7.84896 7.67986 7.39323 7.67986 6.84304C7.67986 6.28622 7.61026 5.85204 7.47106 5.54048C7.33185 5.22893 7.12636 5.01018 6.85458 4.88423C6.5828 4.75829 6.24805 4.69531 5.85032 4.69531C5.47248 4.69531 5.14933 4.79474 4.88086 4.99361C4.61571 5.18916 4.41187 5.45099 4.26935 5.77912C4.13015 6.10393 4.06055 6.45857 4.06055 6.84304C4.06055 7.26728 4.11689 7.66667 4.22958 8.04119C4.34227 8.41241 4.52622 8.71402 4.78143 8.94602C5.03664 9.17472 5.37968 9.28906 5.81055 9.28906Z" fill="#E3E3E3"/>
</svg>