<svg width="62" height="61" viewBox="0 0 62 61" fill="none" xmlns="http://www.w3.org/2000/svg">
<g id="iconoir:search">
<path id="Vector" d="M43.7083 43.2083L53.875 53.375M8.125 27.9583C8.125 33.3511 10.2673 38.5229 14.0805 42.3362C17.8937 46.1494 23.0656 48.2917 28.4583 48.2917C33.8511 48.2917 39.0229 46.1494 42.8362 42.3362C46.6494 38.5229 48.7917 33.3511 48.7917 27.9583C48.7917 22.5656 46.6494 17.3937 42.8362 13.5805C39.0229 9.76726 33.8511 7.625 28.4583 7.625C23.0656 7.625 17.8937 9.76726 14.0805 13.5805C10.2673 17.3937 8.125 22.5656 8.125 27.9583Z" stroke="white" stroke-width="1.5" stroke-linecap="round" stroke-linejoin="round"/>
<path id="Vector_2" d="M19.9359 19.4359C20.0539 19.3175 20.1941 19.2236 20.3485 19.1595C20.5029 19.0955 20.6684 19.0625 20.8356 19.0625C21.0028 19.0625 21.1683 19.0955 21.3227 19.1595C21.4771 19.2236 21.6173 19.3175 21.7354 19.4359L28.4606 26.1636L35.1859 19.4359C35.304 19.3177 35.4443 19.224 35.5987 19.16C35.753 19.0961 35.9185 19.0632 36.0856 19.0632C36.2527 19.0632 36.4182 19.0961 36.5725 19.16C36.7269 19.224 36.8672 19.3177 36.9854 19.4359C37.1035 19.554 37.1972 19.6943 37.2612 19.8487C37.3251 20.003 37.358 20.1685 37.358 20.3356C37.358 20.5027 37.3251 20.6682 37.2612 20.8225C37.1972 20.9769 37.1035 21.1172 36.9854 21.2354L30.2576 27.9606L36.9854 34.6859C37.1035 34.804 37.1972 34.9443 37.2612 35.0987C37.3251 35.253 37.358 35.4185 37.358 35.5856C37.358 35.7527 37.3251 35.9182 37.2612 36.0725C37.1972 36.2269 37.1035 36.3672 36.9854 36.4854C36.8672 36.6035 36.7269 36.6972 36.5725 36.7612C36.4182 36.8251 36.2527 36.858 36.0856 36.858C35.9185 36.858 35.753 36.8251 35.5987 36.7612C35.4443 36.6972 35.304 36.6035 35.1859 36.4854L28.4606 29.7576L21.7354 36.4854C21.6172 36.6035 21.4769 36.6972 21.3225 36.7612C21.1682 36.8251 21.0027 36.858 20.8356 36.858C20.6685 36.858 20.503 36.8251 20.3487 36.7612C20.1943 36.6972 20.054 36.6035 19.9359 36.4854C19.8177 36.3672 19.724 36.2269 19.66 36.0725C19.5961 35.9182 19.5632 35.7527 19.5632 35.5856C19.5632 35.4185 19.5961 35.253 19.66 35.0987C19.724 34.9443 19.8177 34.804 19.9359 34.6859L26.6636 27.9606L19.9359 21.2354C19.8175 21.1173 19.7236 20.9771 19.6595 20.8227C19.5955 20.6683 19.5625 20.5028 19.5625 20.3356C19.5625 20.1684 19.5955 20.0029 19.6595 19.8485C19.7236 19.6941 19.8175 19.5539 19.9359 19.4359Z" fill="white"/>
</g>
</svg>
