<svg width="13" height="14" viewBox="0 0 13 14" fill="none" xmlns="http://www.w3.org/2000/svg">
<g clip-path="url(#clip0_4759_101115)">
<path d="M12.0677 5.82082C12.3627 4.93557 12.2611 3.96583 11.7894 3.16064C11.0801 1.92562 9.65415 1.29022 8.2615 1.58924C7.64194 0.891279 6.75185 0.494373 5.81866 0.50006C4.39514 0.49681 3.13208 1.41334 2.69412 2.7678C1.77963 2.95508 0.990282 3.52751 0.52835 4.33879C-0.186244 5.57057 -0.0233374 7.12328 0.931376 8.17956C0.636438 9.0648 0.738001 10.0345 1.20966 10.8397C1.91899 12.0748 3.34496 12.7102 4.73761 12.4111C5.35676 13.1091 6.24726 13.506 7.18044 13.4999C8.60478 13.5036 9.86824 12.5862 10.3062 11.2305C11.2207 11.0433 12.01 10.4708 12.472 9.65955C13.1858 8.42778 13.0225 6.87628 12.0682 5.82001L12.0677 5.82082ZM7.18125 12.6504C6.61128 12.6513 6.05916 12.4518 5.62163 12.0866C5.64154 12.076 5.67607 12.0569 5.69841 12.0431L8.28709 10.5481C8.41953 10.4729 8.50078 10.3319 8.49997 10.1796V6.53013L9.59402 7.16188C9.6058 7.16756 9.61352 7.17894 9.61515 7.19194V10.2141C9.61352 11.558 8.52515 12.6476 7.18125 12.6504ZM1.947 10.4148C1.66141 9.92161 1.55863 9.34349 1.65653 8.78246C1.67563 8.79383 1.70934 8.81455 1.73331 8.82836L4.32199 10.3234C4.45321 10.4002 4.61571 10.4002 4.74733 10.3234L7.90763 8.49846V9.76193C7.90844 9.77493 7.90235 9.78752 7.89219 9.79564L5.27548 11.3065C4.10993 11.9777 2.6214 11.5787 1.94741 10.4148L1.947 10.4148ZM1.26572 4.76414C1.55009 4.27014 1.99903 3.8923 2.53365 3.69608C2.53365 3.71842 2.53243 3.75783 2.53243 3.78546V6.77594C2.53162 6.92788 2.61287 7.06884 2.7449 7.144L5.9052 8.96852L4.81114 9.60024C4.80017 9.60755 4.78636 9.60877 4.77417 9.60349L2.15706 8.0914C0.993938 7.41781 0.595001 5.92969 1.26531 4.76454L1.26572 4.76414ZM10.2546 6.85597L7.09429 5.03104L8.18835 4.39973C8.19932 4.39242 8.21313 4.3912 8.22532 4.39648L10.8424 5.90735C12.0076 6.58051 12.4069 8.07109 11.7338 9.23624C11.449 9.72943 11.0005 10.1073 10.4662 10.3039V7.22403C10.4675 7.07209 10.3866 6.93153 10.255 6.85597H10.2546ZM11.3434 5.21711C11.3243 5.20532 11.2905 5.18501 11.2666 5.1712L8.6779 3.67617C8.54668 3.59939 8.38418 3.59939 8.25256 3.67617L5.09226 5.50107V4.23761C5.09145 4.22461 5.09755 4.21202 5.1077 4.20389L7.72441 2.69424C8.88997 2.02187 10.3801 2.42205 11.0521 3.58802C11.336 4.08042 11.4388 4.65689 11.3425 5.21711H11.3434ZM4.49751 7.469L3.40305 6.83728C3.39127 6.83159 3.38355 6.82022 3.38193 6.80722V3.78505C3.38274 2.43952 4.47436 1.34912 5.81988 1.34994C6.38904 1.34994 6.93994 1.54981 7.37747 1.91381C7.35756 1.92437 7.32344 1.94347 7.30069 1.95728L4.71201 3.45233C4.57958 3.52749 4.49833 3.66805 4.49914 3.82039L4.49751 7.46819V7.469ZM5.09186 6.18766L6.49954 5.37473L7.90722 6.18726V7.81269L6.49954 8.62521L5.09186 7.81269V6.18766Z" fill="#E3E3E3"/>
</g>
<defs>
<clipPath id="clip0_4759_101115">
<rect width="13" height="13" fill="white" transform="translate(0 0.5)"/>
</clipPath>
</defs>
</svg>
