<svg width="16" height="16" viewBox="0 0 16 16" fill="none" xmlns="http://www.w3.org/2000/svg">
<path class="fill-element" fill-rule="evenodd" clip-rule="evenodd" d="M13 3.5C13 3.77614 12.7761 4 12.5 4H2.5C2.22386 4 2 3.77614 2 3.5C2 3.22386 2.22386 3 2.5 3H12.5C12.7761 3 13 3.22386 13 3.5Z" fill="#999999"/>
<path class="fill-element" fill-rule="evenodd" clip-rule="evenodd" d="M13 7.5C13 7.77614 12.7761 8 12.5 8H2.5C2.22386 8 2 7.77614 2 7.5C2 7.22386 2.22386 7 2.5 7H12.5C12.7761 7 13 7.22386 13 7.5Z" fill="#999999"/>
<path class="fill-element" fill-rule="evenodd" clip-rule="evenodd" d="M13 11.5C13 11.7761 12.7761 12 12.5 12H2.5C2.22386 12 2 11.7761 2 11.5C2 11.2239 2.22386 11 2.5 11H12.5C12.7761 11 13 11.2239 13 11.5Z" fill="#999999"/>
</svg>
