<svg width="14" height="12" viewBox="0 0 14 12" fill="none" xmlns="http://www.w3.org/2000/svg">
<path d="M11.27 2.78938C12.3391 3.87335 13 5.36084 13 7C13 8.60261 12.3759 10.1093 11.2427 11.2426C11.2138 11.2714 11.1805 11.293 11.145 11.3074C11.1095 11.3218 11.0717 11.329 11.034 11.329C10.9585 11.329 10.8829 11.3002 10.8253 11.2426L9.90133 10.3186C9.78609 10.2034 9.78609 10.0166 9.90133 9.90128C10.0166 9.78608 10.2034 9.78608 10.3186 9.90128L11.0282 10.6109C11.8557 9.69016 12.3357 8.53128 12.4017 7.29508H11.3981C11.2352 7.29508 11.1031 7.163 11.1031 7C11.1031 6.837 11.2352 6.70492 11.3981 6.70492H12.4017C12.3331 5.4352 11.8246 4.28064 11.0263 3.39099L10.3186 4.09868C10.261 4.15628 10.1855 4.18508 10.11 4.18508C10.0345 4.18508 9.95893 4.15628 9.90133 4.09868C9.78609 3.98344 9.78609 3.79663 9.90133 3.68135L10.609 2.97367C9.71936 2.17541 8.5648 1.66689 7.29508 1.59831V2.60182C7.29508 2.76483 7.16296 2.8969 7 2.8969C6.83704 2.8969 6.70492 2.76483 6.70492 2.60182V1.59831C5.4352 1.66689 4.28064 2.17537 3.39099 2.97363L4.09864 3.68135C4.21388 3.79659 4.21388 3.9834 4.09864 4.09868C4.04104 4.15628 3.9655 4.18508 3.88999 4.18508C3.81449 4.18508 3.73895 4.15628 3.68135 4.09868L2.97367 3.39099C2.17541 4.2806 1.66692 5.4352 1.59831 6.70492H2.60178C2.76475 6.70492 2.89687 6.837 2.89687 7C2.89687 7.163 2.76475 7.29508 2.60178 7.29508H1.59823C1.66425 8.53128 2.14429 9.69012 2.97174 10.6109L3.68135 9.90128C3.79655 9.78608 3.9834 9.78608 4.09864 9.90128C4.21388 10.0165 4.21388 10.2033 4.09864 10.3186L3.18931 11.228C3.18483 11.2332 3.18038 11.2384 3.17546 11.2433C3.11786 11.301 3.04232 11.3298 2.96678 11.3298C2.89128 11.3298 2.81578 11.301 2.75818 11.2434L2.7577 11.2429L2.75739 11.2426L2.75692 11.2421C1.62396 10.1089 1 8.60245 1 7C1 5.36084 1.66094 3.87335 2.73001 2.78938C2.73835 2.77824 2.74724 2.76742 2.75735 2.75731C2.76746 2.74724 2.77828 2.73835 2.78938 2.73001C3.87339 1.66094 5.36088 1 7 1C8.63912 1 10.1266 1.6609 11.2106 2.73001C11.2217 2.73831 11.2325 2.7472 11.2426 2.75731C11.2527 2.76742 11.2616 2.77828 11.27 2.78938ZM8.215 3.08772C8.29074 2.89246 8.50536 2.79762 8.69456 2.87585C8.88366 2.95404 8.97552 3.17571 8.89979 3.37087L7.84216 6.09629C7.86965 6.11467 7.89715 6.1331 7.92405 6.15331C7.97407 6.19088 8.01941 6.23779 8.05541 6.28907C8.40729 6.78881 8.47044 7.38561 8.22395 7.88515C7.98818 8.363 7.5192 8.65986 7.00005 8.65986C6.68166 8.65986 6.36213 8.54639 6.07605 8.33168C6.02618 8.29426 5.98093 8.2475 5.94493 8.19637C5.5928 7.69628 5.52965 7.09942 5.77615 6.59989C6.01197 6.12203 6.4809 5.82518 7.00005 5.82518C7.04977 5.82518 7.09944 5.82893 7.14911 5.83442L8.215 3.08772ZM7 7.89825C7.24025 7.89825 7.45733 7.76076 7.56656 7.53945C7.68341 7.30261 7.64859 7.01803 7.47159 6.7556C7.40215 6.70554 7.33211 6.66716 7.26179 6.63928C7.25367 6.63659 7.24556 6.6339 7.23749 6.6306C7.23493 6.62954 7.23262 6.62817 7.23011 6.6271C7.15349 6.60045 7.07667 6.58674 7.00005 6.58674C6.75975 6.58674 6.54267 6.72423 6.43349 6.94553C6.31659 7.18238 6.35136 7.4669 6.52841 7.72933C6.68382 7.84143 6.84243 7.89825 7 7.89825Z"/>
<path d="M11.27 2.78938L11.1501 2.87951L11.1561 2.88755L11.1632 2.89471L11.27 2.78938ZM11.2427 11.2426L11.3486 11.3487L11.3487 11.3487L11.2427 11.2426ZM11.145 11.3074L11.2013 11.4464L11.2013 11.4464L11.145 11.3074ZM10.8253 11.2426L10.9314 11.1365L10.8253 11.2426ZM9.90133 10.3186L10.0074 10.2125V10.2125L9.90133 10.3186ZM9.90133 9.90128L9.79528 9.7952L9.79524 9.79524L9.90133 9.90128ZM10.3186 9.90128L10.4247 9.79522L10.4247 9.79522L10.3186 9.90128ZM11.0282 10.6109L10.9222 10.717L11.034 10.8289L11.1398 10.7112L11.0282 10.6109ZM12.4017 7.29508L12.5515 7.30308L12.5599 7.14508H12.4017V7.29508ZM12.4017 6.70492V6.85492H12.56L12.5514 6.69683L12.4017 6.70492ZM11.0263 3.39099L11.1379 3.29081L11.0322 3.17296L10.9202 3.28492L11.0263 3.39099ZM10.3186 4.09868L10.2125 3.99261L10.3186 4.09868ZM9.90133 4.09868L10.0074 3.99261V3.99261L9.90133 4.09868ZM9.90133 3.68135L9.79526 3.57528L9.79524 3.5753L9.90133 3.68135ZM10.609 2.97367L10.7151 3.07973L10.827 2.96777L10.7092 2.86202L10.609 2.97367ZM7.29508 1.59831L7.30317 1.44853L7.14508 1.43999V1.59831H7.29508ZM6.70492 1.59831H6.85492V1.43999L6.69683 1.44853L6.70492 1.59831ZM3.39099 2.97363L3.29081 2.86198L3.17297 2.96772L3.28492 3.07969L3.39099 2.97363ZM4.09864 3.68135L3.99256 3.78741L3.99257 3.78742L4.09864 3.68135ZM4.09864 4.09868L4.2047 4.20474L4.20472 4.20472L4.09864 4.09868ZM3.68135 4.09868L3.78742 3.99261L3.68135 4.09868ZM2.97367 3.39099L3.07973 3.28492L2.96777 3.17296L2.86202 3.29081L2.97367 3.39099ZM1.59831 6.70492L1.44853 6.69682L1.43998 6.85492H1.59831V6.70492ZM1.59823 7.29508V7.14508H1.44L1.44844 7.30308L1.59823 7.29508ZM2.97174 10.6109L2.86017 10.7112L2.96592 10.8288L3.0778 10.717L2.97174 10.6109ZM3.68135 9.90128L3.78742 10.0073H3.78742L3.68135 9.90128ZM4.09864 9.90128L4.2047 9.79522L4.20468 9.7952L4.09864 9.90128ZM4.09864 10.3186L4.2047 10.4247L4.20472 10.4247L4.09864 10.3186ZM3.18931 11.228L3.08296 11.1216L3.0758 11.1299L3.18931 11.228ZM3.17546 11.2433L3.0694 11.1373L3.06936 11.1373L3.17546 11.2433ZM2.75818 11.2434L2.65202 11.3494L2.65211 11.3495L2.75818 11.2434ZM2.7577 11.2429L2.8641 11.1367L2.85653 11.1301L2.7577 11.2429ZM2.75739 11.2426L2.64721 11.3444L2.65259 11.3503L2.65857 11.3555L2.75739 11.2426ZM2.75692 11.2421L2.86719 11.1403L2.863 11.1361L2.75692 11.2421ZM2.73001 2.78938L2.8368 2.89471L2.84395 2.88746L2.85006 2.87931L2.73001 2.78938ZM2.75735 2.75731L2.65149 2.65104L2.65128 2.65125L2.75735 2.75731ZM2.78938 2.73001L2.87951 2.8499L2.88755 2.84386L2.8947 2.83681L2.78938 2.73001ZM11.2106 2.73001L11.1053 2.8368L11.1125 2.84398L11.1207 2.85011L11.2106 2.73001ZM11.2426 2.75731L11.1365 2.86337L11.1365 2.86338L11.2426 2.75731ZM8.69456 2.87585L8.63724 3.01447L8.63724 3.01447L8.69456 2.87585ZM8.215 3.08772L8.35484 3.14199L8.35485 3.14196L8.215 3.08772ZM8.89979 3.37087L8.75995 3.3166L8.75995 3.3166L8.89979 3.37087ZM7.84216 6.09629L7.70232 6.04203L7.65881 6.15415L7.7588 6.22099L7.84216 6.09629ZM7.92405 6.15331L8.01414 6.03337L8.01414 6.03337L7.92405 6.15331ZM8.05541 6.28907L7.93264 6.37526L7.93276 6.37543L8.05541 6.28907ZM8.22395 7.88515L8.08944 7.81877L8.08943 7.81878L8.22395 7.88515ZM6.07605 8.33168L6.16609 8.21171L6.16607 8.2117L6.07605 8.33168ZM5.94493 8.19637L5.82229 8.28273L5.82229 8.28273L5.94493 8.19637ZM5.77615 6.59989L5.64163 6.53351L5.64163 6.53351L5.77615 6.59989ZM7.14911 5.83442L7.13266 5.98351L7.24725 5.99616L7.28895 5.88868L7.14911 5.83442ZM7.56656 7.53945L7.70107 7.60584L7.70108 7.60582L7.56656 7.53945ZM7.47159 6.7556L7.59595 6.67173L7.581 6.64956L7.55931 6.63392L7.47159 6.7556ZM7.26179 6.63928L7.31714 6.49961L7.309 6.49691L7.26179 6.63928ZM7.23749 6.6306L7.17978 6.76906L7.18068 6.76943L7.23749 6.6306ZM7.23011 6.6271L7.28893 6.48874L7.2794 6.48543L7.23011 6.6271ZM6.43349 6.94553L6.568 7.01192L6.56801 7.0119L6.43349 6.94553ZM6.52841 7.72933L6.40406 7.81322L6.419 7.83536L6.44066 7.85099L6.52841 7.72933ZM13.15 7C13.15 5.31969 12.4723 3.79484 11.3768 2.68405L11.1632 2.89471C12.2058 3.95186 12.85 5.40199 12.85 7H13.15ZM11.3487 11.3487C12.5101 10.1873 13.15 8.64239 13.15 7H12.85C12.85 8.56283 12.2417 10.0314 11.1366 11.1365L11.3487 11.3487ZM11.2013 11.4464C11.2551 11.4246 11.3054 11.3919 11.3486 11.3487L11.1367 11.1365C11.1222 11.1509 11.1059 11.1614 11.0886 11.1684L11.2013 11.4464ZM11.034 11.479C11.0907 11.479 11.1477 11.4682 11.2013 11.4464L11.0887 11.1684C11.0713 11.1754 11.0527 11.179 11.034 11.179V11.479ZM10.7193 11.3487C10.8061 11.4356 10.9203 11.479 11.034 11.479V11.179C10.9966 11.179 10.9597 11.1649 10.9314 11.1365L10.7193 11.3487ZM9.79526 10.4247L10.7193 11.3487L10.9314 11.1365L10.0074 10.2125L9.79526 10.4247ZM9.79524 9.79524C9.62146 9.96908 9.62143 10.2508 9.79526 10.4247L10.0074 10.2125C9.95074 10.1559 9.95071 10.064 10.0074 10.0073L9.79524 9.79524ZM10.4247 9.79522C10.2509 9.62143 9.96908 9.62146 9.79528 9.7952L10.0074 10.0074C10.064 9.95071 10.1559 9.95074 10.2125 10.0073L10.4247 9.79522ZM11.1343 10.5049L10.4247 9.79522L10.2125 10.0073L10.9222 10.717L11.1343 10.5049ZM12.2519 7.28708C12.1877 8.48907 11.7212 9.61539 10.9167 10.5107L11.1398 10.7112C11.9901 9.76493 12.4836 8.57349 12.5515 7.30308L12.2519 7.28708ZM11.3981 7.44508H12.4017V7.14508H11.3981V7.44508ZM10.9531 7C10.9531 7.24586 11.1523 7.44508 11.3981 7.44508V7.14508C11.318 7.14508 11.2531 7.08015 11.2531 7H10.9531ZM11.3981 6.55492C11.1523 6.55492 10.9531 6.75414 10.9531 7H11.2531C11.2531 6.91985 11.318 6.85492 11.3981 6.85492V6.55492ZM12.4017 6.55492H11.3981V6.85492H12.4017V6.55492ZM10.9146 3.49117C11.691 4.35638 12.1852 5.47877 12.2519 6.71301L12.5514 6.69683C12.4809 5.39163 11.9581 4.20491 11.1379 3.29081L10.9146 3.49117ZM10.4247 4.20474L11.1324 3.49706L10.9202 3.28492L10.2125 3.99261L10.4247 4.20474ZM10.11 4.33508C10.2236 4.33508 10.3378 4.29162 10.4247 4.20474L10.2125 3.99261C10.1842 4.02093 10.1473 4.03508 10.11 4.03508V4.33508ZM9.79526 4.20474C9.88214 4.29162 9.99634 4.33508 10.11 4.33508V4.03508C10.0726 4.03508 10.0357 4.02093 10.0074 3.99261L9.79526 4.20474ZM9.79524 3.5753C9.62146 3.74915 9.62143 4.03091 9.79526 4.20474L10.0074 3.99261C9.95074 3.93596 9.95071 3.84411 10.0074 3.7874L9.79524 3.5753ZM10.5029 2.8676L9.79526 3.57528L10.0074 3.78742L10.7151 3.07973L10.5029 2.8676ZM7.28699 1.74809C8.52123 1.81475 9.64362 2.30898 10.5088 3.08531L10.7092 2.86202C9.79509 2.04183 8.60837 1.51902 7.30317 1.44853L7.28699 1.74809ZM7.44508 2.60182V1.59831H7.14508V2.60182H7.44508ZM7 3.04691C7.24579 3.04691 7.44508 2.84768 7.44508 2.60182H7.14508C7.14508 2.68197 7.08013 2.7469 7 2.7469V3.04691ZM6.55492 2.60182C6.55492 2.84768 6.75421 3.04691 7 3.04691V2.7469C6.91987 2.7469 6.85492 2.68197 6.85492 2.60182H6.55492ZM6.55492 1.59831V2.60182H6.85492V1.59831H6.55492ZM3.49117 3.08527C4.35638 2.30895 5.47876 1.81475 6.71301 1.74809L6.69683 1.44853C5.39164 1.51902 4.20491 2.04179 3.29081 2.86198L3.49117 3.08527ZM4.20471 3.57529L3.49706 2.86757L3.28492 3.07969L3.99256 3.78741L4.20471 3.57529ZM4.20472 4.20472C4.3785 4.03088 4.37853 3.74911 4.2047 3.57528L3.99257 3.78742C4.04922 3.84407 4.04925 3.93591 3.99255 3.99263L4.20472 4.20472ZM3.88999 4.33508C4.00362 4.33508 4.11782 4.29162 4.2047 4.20474L3.99257 3.99261C3.96425 4.02093 3.92737 4.03508 3.88999 4.03508V4.33508ZM3.57528 4.20474C3.66216 4.29162 3.77636 4.33508 3.88999 4.33508V4.03508C3.85262 4.03508 3.81574 4.02093 3.78742 3.99261L3.57528 4.20474ZM2.8676 3.49706L3.57528 4.20474L3.78742 3.99261L3.07973 3.28492L2.8676 3.49706ZM1.74809 6.71301C1.81479 5.47876 2.30899 4.35634 3.08531 3.49117L2.86202 3.29081C2.04183 4.20487 1.51906 5.39164 1.44853 6.69682L1.74809 6.71301ZM2.60178 6.55492H1.59831V6.85492H2.60178V6.55492ZM3.04687 7C3.04687 6.75414 2.84758 6.55492 2.60178 6.55492V6.85492C2.68192 6.85492 2.74687 6.91985 2.74687 7H3.04687ZM2.60178 7.44508C2.84758 7.44508 3.04687 7.24586 3.04687 7H2.74687C2.74687 7.08015 2.68192 7.14508 2.60178 7.14508V7.44508ZM1.59823 7.44508H2.60178V7.14508H1.59823V7.44508ZM3.08331 10.5106C2.27876 9.61535 1.81221 8.48906 1.74802 7.28708L1.44844 7.30308C1.51629 8.57349 2.00982 9.7649 2.86017 10.7112L3.08331 10.5106ZM3.57528 9.79522L2.86567 10.5048L3.0778 10.717L3.78742 10.0073L3.57528 9.79522ZM4.20468 9.7952C4.03088 9.62146 3.74907 9.62143 3.57528 9.79522L3.78742 10.0073C3.84403 9.95074 3.93591 9.95071 3.99259 10.0074L4.20468 9.7952ZM4.20472 10.4247C4.3785 10.2508 4.37853 9.96905 4.2047 9.79522L3.99257 10.0073C4.04922 10.064 4.04925 10.1558 3.99255 10.2126L4.20472 10.4247ZM3.29538 11.334L4.2047 10.4247L3.99257 10.2125L3.08324 11.1219L3.29538 11.334ZM3.28153 11.3494C3.29121 11.3397 3.29973 11.3296 3.30283 11.326L3.0758 11.1299C3.073 11.1332 3.07181 11.1346 3.07045 11.1361C3.06932 11.1373 3.06909 11.1376 3.0694 11.1373L3.28153 11.3494ZM2.96678 11.4798C3.08045 11.4798 3.19467 11.4363 3.28156 11.3493L3.06936 11.1373C3.04106 11.1656 3.0042 11.1798 2.96678 11.1798V11.4798ZM2.65211 11.3495C2.73901 11.4364 2.85318 11.4798 2.96678 11.4798V11.1798C2.92938 11.1798 2.89254 11.1656 2.86424 11.1373L2.65211 11.3495ZM2.65155 11.3489L2.65202 11.3494L2.86434 11.1374L2.86386 11.137L2.65155 11.3489ZM2.65857 11.3555L2.65888 11.3558L2.85653 11.1301L2.85621 11.1298L2.65857 11.3555ZM2.64673 11.3439L2.64721 11.3444L2.86757 11.1409L2.8671 11.1404L2.64673 11.3439ZM0.85 7C0.85 8.64223 1.48976 10.1868 2.65084 11.3482L2.863 11.1361C1.75816 10.031 1.15 8.56267 1.15 7H0.85ZM2.62321 2.68405C1.5277 3.79484 0.85 5.31969 0.85 7H1.15C1.15 5.40199 1.79419 3.95186 2.8368 2.89471L2.62321 2.68405ZM2.65128 2.65125C2.6345 2.66803 2.62092 2.68481 2.60996 2.69944L2.85006 2.87931C2.85578 2.87168 2.85997 2.86682 2.86342 2.86338L2.65128 2.65125ZM2.69924 2.61011C2.68479 2.62097 2.66815 2.63445 2.65149 2.65104L2.86321 2.86358C2.86678 2.86003 2.87177 2.85572 2.87951 2.8499L2.69924 2.61011ZM7 0.85C5.31973 0.85 3.79488 1.5277 2.68405 2.62321L2.8947 2.83681C3.9519 1.79419 5.40203 1.15 7 1.15V0.85ZM11.3159 2.62321C10.2051 1.52766 8.68027 0.85 7 0.85V1.15C8.59798 1.15 10.0481 1.79415 11.1053 2.8368L11.3159 2.62321ZM11.3487 2.65125C11.3319 2.63447 11.3151 2.62087 11.3004 2.6099L11.1207 2.85011C11.1283 2.85575 11.1331 2.85993 11.1365 2.86337L11.3487 2.65125ZM11.3899 2.69924C11.3791 2.68497 11.3655 2.66811 11.3487 2.65124L11.1365 2.86338C11.1399 2.86673 11.1441 2.8716 11.1501 2.87951L11.3899 2.69924ZM8.75188 2.73724C8.48185 2.62558 8.1801 2.7629 8.07515 3.03348L8.35485 3.14196C8.40138 3.02201 8.52887 2.96966 8.63724 3.01447L8.75188 2.73724ZM9.03963 3.42514C9.14372 3.1569 9.01925 2.84779 8.75187 2.73724L8.63724 3.01447C8.74806 3.06029 8.80733 3.19451 8.75995 3.3166L9.03963 3.42514ZM7.982 6.15056L9.03963 3.42513L8.75995 3.3166L7.70232 6.04203L7.982 6.15056ZM8.01414 6.03337C7.98346 6.01033 7.95265 5.98972 7.92553 5.97159L7.7588 6.22099C7.78666 6.23962 7.81084 6.25587 7.83396 6.27324L8.01414 6.03337ZM8.17818 6.20288C8.13319 6.1388 8.07684 6.08047 8.01414 6.03337L7.83396 6.27324C7.87129 6.30128 7.90563 6.33678 7.93264 6.37526L8.17818 6.20288ZM8.35846 7.95152C8.63204 7.3971 8.55776 6.74195 8.17806 6.20271L7.93276 6.37543C8.25683 6.83566 8.30884 7.37413 8.08944 7.81877L8.35846 7.95152ZM7.00005 8.80986C7.57819 8.80986 8.09828 8.47886 8.35847 7.95152L8.08943 7.81878C7.87808 8.24714 7.4602 8.50986 7.00005 8.50986V8.80986ZM5.98601 8.45165C6.2947 8.68333 6.64522 8.80986 7.00005 8.80986V8.50986C6.71809 8.50986 6.42956 8.40944 6.16609 8.21171L5.98601 8.45165ZM5.82229 8.28273C5.86724 8.34657 5.92346 8.40471 5.98602 8.45166L6.16607 8.2117C6.1289 8.1838 6.09463 8.14843 6.06758 8.11001L5.82229 8.28273ZM5.64163 6.53351C5.36805 7.08795 5.44235 7.74315 5.82229 8.28273L6.06758 8.11001C5.74326 7.64941 5.69126 7.11089 5.91066 6.66626L5.64163 6.53351ZM7.00005 5.67518C6.4219 5.67518 5.90187 6.00618 5.64163 6.53351L5.91066 6.66627C6.12207 6.23788 6.53991 5.97518 7.00005 5.97518V5.67518ZM7.16557 5.68532C7.11268 5.67948 7.05714 5.67518 7.00005 5.67518V5.97518C7.0424 5.97518 7.0862 5.97838 7.13266 5.98351L7.16557 5.68532ZM8.07516 3.03345L7.00927 5.78015L7.28895 5.88868L8.35484 3.14199L8.07516 3.03345ZM7.43205 7.47306C7.34721 7.64496 7.18119 7.74825 7 7.74825V8.04825C7.2993 8.04825 7.56745 7.87656 7.70107 7.60584L7.43205 7.47306ZM7.34723 6.83947C7.50134 7.06797 7.51987 7.29506 7.43204 7.47308L7.70108 7.60582C7.84695 7.31015 7.79584 6.96809 7.59595 6.67173L7.34723 6.83947ZM7.20652 6.77873C7.2646 6.80175 7.3238 6.83398 7.38387 6.87728L7.55931 6.63392C7.48049 6.57711 7.39963 6.53257 7.31705 6.49984L7.20652 6.77873ZM7.18068 6.76943C7.19426 6.77498 7.20721 6.77922 7.21457 6.78166L7.309 6.49691C7.30013 6.49397 7.29686 6.49282 7.2943 6.49178L7.18068 6.76943ZM7.17143 6.76515C7.1691 6.76415 7.16737 6.76333 7.16659 6.76295C7.16596 6.76265 7.16546 6.76239 7.16638 6.76285C7.16713 6.76323 7.17287 6.76618 7.17978 6.76906L7.29521 6.49215C7.29955 6.49396 7.30286 6.49569 7.30119 6.49485C7.3009 6.4947 7.29919 6.49384 7.29734 6.49295C7.29534 6.49198 7.29238 6.49058 7.2888 6.48906L7.17143 6.76515ZM7.00005 6.73674C7.0585 6.73674 7.11868 6.74715 7.18083 6.76877L7.2794 6.48543C7.1883 6.45374 7.09484 6.43674 7.00005 6.43674V6.73674ZM6.56801 7.0119C6.6528 6.84004 6.8188 6.73674 7.00005 6.73674V6.43674C6.70071 6.43674 6.43254 6.60841 6.29897 6.87917L6.56801 7.0119ZM6.65276 7.64544C6.49862 7.41697 6.48013 7.18994 6.568 7.01192L6.29898 6.87914C6.15305 7.17482 6.2041 7.51683 6.40406 7.81322L6.65276 7.64544ZM7 7.74825C6.88022 7.74825 6.75165 7.70541 6.61616 7.60768L6.44066 7.85099C6.61598 7.97746 6.80463 8.04825 7 8.04825V7.74825Z"/>
</svg>
