<svg width="8" height="10" viewBox="0 0 8 10" fill="none" xmlns="http://www.w3.org/2000/svg">
<path class="lock" d="M4 1C4.824 1 5.5 1.676 5.5 2.5V4H2.5V2.5C2.5 1.676 3.176 1 4 1ZM6.5 4V2.5C6.5 1.124 5.376 0 4 0C2.624 0 1.5 1.124 1.5 2.5V4H1C0.734784 4 0.48043 4.10536 0.292893 4.29289C0.105357 4.48043 0 4.73478 0 5V9C0 9.26522 0.105357 9.51957 0.292893 9.70711C0.48043 9.89464 0.734784 10 1 10H7C7.26522 10 7.51957 9.89464 7.70711 9.70711C7.89464 9.51957 8 9.26522 8 9V5C8 4.73478 7.89464 4.48043 7.70711 4.29289C7.51957 4.10536 7.26522 4 7 4H6.5ZM1 5H7V9H1V5Z" fill="#00CF93"/>
<path class="checkmark" d="M2.5 7.25L3.4375 8.1875L5.3125 6" stroke="#00CF93" stroke-linecap="round" stroke-linejoin="round"/>
</svg>
