<svg width="12" height="12" viewBox="0 0 12 12" fill="none" xmlns="http://www.w3.org/2000/svg">
<path d="M3.10667 1.61333H0.773333V0.726667H3.80667L4.27333 1.19333V4.22667H3.38667V2.5C2.57778 3.09111 2.03333 3.88444 1.75333 4.88C1.50444 5.84444 1.58222 6.79333 1.98667 7.72667C2.39111 8.66 3.02889 9.37556 3.9 9.87333C4.80222 10.34 5.75111 10.4956 6.74667 10.34C7.74222 10.1533 8.56667 9.68667 9.22 8.94C9.90444 8.19333 10.2778 7.32222 10.34 6.32667C10.4333 5.3 10.2 4.38222 9.64 3.57333C9.08 2.73333 8.31778 2.15778 7.35333 1.84667L7.58667 1.00667C8.36444 1.25556 9.03333 1.66 9.59333 2.22C10.1844 2.74889 10.62 3.38667 10.9 4.13333C11.18 4.88 11.2889 5.65778 11.2267 6.46667C11.1644 7.24444 10.9311 7.97556 10.5267 8.66C10.1222 9.34444 9.57778 9.92 8.89333 10.3867C8.24 10.8222 7.50889 11.1022 6.7 11.2267C5.92222 11.32 5.14444 11.2422 4.36667 10.9933C3.62 10.7444 2.95111 10.3556 2.36 9.82667C1.8 9.26667 1.38 8.61333 1.1 7.86667C0.82 7.12 0.711111 6.35778 0.773333 5.58C0.835556 4.77111 1.06889 4.02444 1.47333 3.34C1.87778 2.65556 2.42222 2.08 3.10667 1.61333Z" fill="#999999"/>
</svg>
