<svg width="16" height="16" viewBox="0 0 16 16" fill="none" xmlns="http://www.w3.org/2000/svg">
<path fill-rule="evenodd" clip-rule="evenodd" d="M2.61533 8.7H3.93451C4.00469 7.79517 4.31052 6.92699 4.8179 6.18067C3.63972 6.4647 2.74194 7.46806 2.61533 8.7ZM5.5 6.26376C4.9495 6.96487 4.61453 7.81149 4.53655 8.7H6.46346C6.38547 7.81149 6.0505 6.96487 5.5 6.26376ZM6.46346 9.3C6.38547 10.1885 6.0505 11.0351 5.5 11.7362C4.9495 11.0351 4.61453 10.1885 4.53655 9.3H6.46346ZM3.93451 9.3H2.61533C2.74194 10.5319 3.63971 11.5353 4.8179 11.8193C4.31052 11.073 4.00469 10.2048 3.93451 9.3ZM6.1821 11.8193C6.68948 11.073 6.99531 10.2048 7.0655 9.3H8.38467C8.25806 10.5319 7.36029 11.5353 6.1821 11.8193ZM8.38467 8.7H7.0655C6.99531 7.79517 6.68948 6.92699 6.1821 6.18067C7.36028 6.4647 8.25806 7.46806 8.38467 8.7ZM2 9C2 7.067 3.567 5.5 5.5 5.5C7.433 5.5 9 7.067 9 9C9 10.933 7.433 12.5 5.5 12.5C3.567 12.5 2 10.933 2 9Z" fill="#E3E3E3"/>
<path d="M3.00455 5.25473L3.006 3.625C3.006 3.00625 3.54 2.5 4.2 2.5H7.8L9 3.625H13.8C14.46 3.625 15 4.13125 15 4.75V10.375C15 10.9938 14.46 11.5 13.8 11.5H9.24222C9.44873 11.1915 9.6181 10.856 9.74394 10.5H13.8C13.8724 10.5 13.9288 10.4726 13.9636 10.44C13.9974 10.4083 14 10.3842 14 10.375V4.75C14 4.74077 13.9974 4.71673 13.9636 4.68501C13.9288 4.65245 13.8724 4.625 13.8 4.625H8.60455L7.40455 3.5H4.2C4.12822 3.5 4.07451 3.5269 4.04195 3.55764C4.01007 3.58774 4.006 3.6121 4.006 3.625L4.00499 4.7543C3.64886 4.8797 3.31324 5.04864 3.00455 5.25473Z" fill="#E3E3E3"/>
</svg>
