<svg width="16" height="16" viewBox="0 0 16 16" fill="none" xmlns="http://www.w3.org/2000/svg">
<path fill-rule="evenodd" clip-rule="evenodd" d="M10.7094 2.08874L13.5329 4.91227C13.5896 4.96895 13.6216 5.04584 13.6216 5.12605V11.5798C13.6216 11.767 13.5473 11.9466 13.4149 12.079C13.2825 12.2113 13.103 12.2857 12.9157 12.2857H9.44269C9.57013 12.0953 9.68107 11.893 9.77347 11.6807H12.9157C12.9425 11.6807 12.9681 11.67 12.987 11.6511C13.006 11.6322 13.0166 11.6066 13.0166 11.5798V5.42857H10.4956C10.4153 5.42857 10.3384 5.3967 10.2817 5.33996C10.2249 5.28323 10.1931 5.20628 10.1931 5.12605V2.60504H5.65524C5.6285 2.60504 5.60285 2.61567 5.58394 2.63458C5.56502 2.65349 5.5544 2.67914 5.5544 2.70588V6.34558C5.34648 6.3826 5.14432 6.43628 4.94936 6.50519V2.70588C4.94936 2.51867 5.02373 2.33913 5.15611 2.20675C5.28848 2.07437 5.46803 2 5.65524 2H10.4956C10.5758 2.00007 10.6527 2.03199 10.7094 2.08874ZM12.589 4.82353L10.7981 3.03261V4.82353H12.589Z" fill="#E3E3E3"/>
<path fill-rule="evenodd" clip-rule="evenodd" d="M3.7625 9.88571H4.89322C4.95338 9.11015 5.21552 8.36599 5.65041 7.72629C4.64054 7.96974 3.87102 8.82977 3.7625 9.88571ZM6.23507 7.7975C5.76321 8.39846 5.4761 9.12414 5.40925 9.88571H7.06089C6.99405 9.12414 6.70693 8.39846 6.23507 7.7975ZM7.06089 10.4C6.99405 11.1616 6.70693 11.8873 6.23507 12.4882C5.76321 11.8873 5.4761 11.1616 5.40925 10.4H7.06089ZM4.89322 10.4H3.7625C3.87102 11.4559 4.64054 12.316 5.65041 12.5594C5.21552 11.9197 4.95338 11.1756 4.89322 10.4ZM6.81973 12.5594C7.25463 11.9197 7.51676 11.1756 7.57692 10.4H8.70765C8.59912 11.4559 7.8296 12.316 6.81973 12.5594ZM8.70765 9.88571H7.57692C7.51676 9.11015 7.25463 8.36599 6.81973 7.72629C7.8296 7.96974 8.59912 8.82977 8.70765 9.88571ZM3.23507 10.1429C3.23507 8.486 4.57822 7.14286 6.23507 7.14286C7.89193 7.14286 9.23507 8.486 9.23507 10.1429C9.23507 11.7997 7.89193 13.1429 6.23507 13.1429C4.57822 13.1429 3.23507 11.7997 3.23507 10.1429Z" fill="#E3E3E3"/>
</svg>
