<svg width="16" height="16" viewBox="0 0 16 16" fill="none" xmlns="http://www.w3.org/2000/svg">
<path fill-rule="evenodd" clip-rule="evenodd" d="M2.63353 10.2776H3.92579C3.99454 9.39119 4.29413 8.54073 4.79115 7.80964C3.63701 8.08787 2.75756 9.07075 2.63353 10.2776ZM5.45933 7.89103C4.92007 8.57783 4.59193 9.40718 4.51554 10.2776H6.40313C6.32673 9.40718 5.9986 8.57783 5.45933 7.89103ZM6.40313 10.8653C6.32673 11.7357 5.9986 12.565 5.45933 13.2518C4.92007 12.565 4.59193 11.7357 4.51554 10.8653H6.40313ZM3.92579 10.8653H2.63353C2.75756 12.0721 3.63701 13.055 4.79115 13.3332C4.29413 12.6021 3.99454 11.7517 3.92579 10.8653ZM6.12751 13.3332C6.62454 12.6021 6.92412 11.7517 6.99288 10.8653H8.28513C8.16111 12.0721 7.28165 13.055 6.12751 13.3332ZM8.28513 10.2776H6.99288C6.92412 9.39119 6.62454 8.54073 6.12751 7.80964C7.28165 8.08787 8.16111 9.07075 8.28513 10.2776ZM2.03076 10.5714C2.03076 8.67788 3.56579 7.14286 5.45933 7.14286C7.35288 7.14286 8.8879 8.67788 8.8879 10.5714C8.8879 12.465 7.35288 14 5.45933 14C3.56579 14 2.03076 12.465 2.03076 10.5714Z" fill="#E3E3E3"/>
<path fill-rule="evenodd" clip-rule="evenodd" d="M7.54041 7.6232C6.34452 7.17474 6.0203 6.13383 5.93391 5.52543C5.16839 5.31251 4.60219 4.62389 4.60219 3.8C4.60219 2.80743 5.41923 2 6.42362 2C7.42801 2 8.24505 2.80743 8.24505 3.8C8.24505 4.59817 7.71319 5.26829 6.98358 5.50383C7.05904 5.88183 7.27761 6.42491 7.90886 6.662C8.52971 6.89446 8.97726 7.15211 9.28586 7.45194C9.59447 7.15211 10.0425 6.89446 10.6629 6.662C11.2941 6.42491 11.5122 5.88183 11.5882 5.50383C10.8585 5.26829 10.3267 4.59817 10.3267 3.8C10.3267 2.80743 11.1437 2 12.1481 2C13.1525 2 13.9695 2.80743 13.9695 3.8C13.9695 4.62389 13.4033 5.31251 12.6378 5.52594C12.5514 6.13434 12.2272 7.17526 11.0313 7.62371C9.80627 8.08349 9.80627 8.44606 9.80627 8.68571V8.76954C10.5557 8.99274 11.1073 9.67314 11.1073 10.4857C11.1073 11.4783 10.2903 12.2857 9.28586 12.2857C9.01236 12.2857 8.75276 12.2258 8.51976 12.1187C8.67605 11.8101 8.78706 11.4748 8.84404 11.1214C8.96976 11.207 9.122 11.2571 9.28586 11.2571C9.71624 11.2571 10.0665 10.911 10.0665 10.4857C10.0665 10.0604 9.71624 9.71429 9.28586 9.71429C9.10966 9.71429 8.94689 9.7723 8.81609 9.87001C8.74397 9.52306 8.61941 9.19533 8.45107 8.89548C8.55092 8.84444 8.65608 8.80212 8.76546 8.76954V8.68571C8.76546 8.44606 8.76546 8.08349 7.54041 7.6232ZM12.9287 3.8C12.9287 3.37469 12.5785 3.02857 12.1481 3.02857C11.7177 3.02857 11.3675 3.37469 11.3675 3.8C11.3675 4.22531 11.7177 4.57143 12.1481 4.57143C12.5785 4.57143 12.9287 4.22531 12.9287 3.8ZM7.20423 3.8C7.20423 3.37469 6.854 3.02857 6.42362 3.02857C5.99324 3.02857 5.64301 3.37469 5.64301 3.8C5.64301 4.22531 5.99324 4.57143 6.42362 4.57143C6.854 4.57143 7.20423 4.22531 7.20423 3.8Z" fill="#E3E3E3"/>
</svg>
