<svg width="12" height="12" viewBox="0 0 12 12" fill="none" xmlns="http://www.w3.org/2000/svg">
<path d="M10.8937 5.36695L4.14 1.23539C4.02613 1.16567 3.89572 1.1276 3.76222 1.12513C3.62873 1.12266 3.49699 1.15587 3.38063 1.22133C3.26536 1.28577 3.16935 1.37976 3.10245 1.49361C3.03556 1.60747 3.00019 1.73709 3 1.86914V10.1313C3.00087 10.3294 3.08036 10.519 3.221 10.6585C3.36164 10.798 3.55191 10.876 3.75 10.8752C3.88826 10.8752 4.02383 10.8371 4.14187 10.7651L10.8937 6.63351C11.0023 6.56736 11.092 6.47441 11.1542 6.36359C11.2164 6.25277 11.2491 6.1278 11.2491 6.0007C11.2491 5.8736 11.2164 5.74863 11.1542 5.63781C11.092 5.52699 11.0023 5.43404 10.8937 5.36789V5.36695ZM3.75 10.1224V1.87523L10.492 6.00023L3.75 10.1224Z" fill="black"/>
</svg>
