<svg width="16" height="16" viewBox="0 0 16 16" fill="none" xmlns="http://www.w3.org/2000/svg">
<path fill-rule="evenodd" clip-rule="evenodd" d="M8 4.75C7.72386 4.75 7.5 4.52614 7.5 4.25V3.02469C5.13779 3.25922 3.25922 5.13779 3.02469 7.5H4.25C4.52614 7.5 4.75 7.72386 4.75 8C4.75 8.27614 4.52614 8.5 4.25 8.5H3.02469C3.25922 10.8622 5.13779 12.7408 7.5 12.9753V11.75C7.5 11.4739 7.72386 11.25 8 11.25C8.27614 11.25 8.5 11.4739 8.5 11.75V12.9753C10.8622 12.7408 12.7408 10.8622 12.9753 8.5H11.75C11.4739 8.5 11.25 8.27614 11.25 8C11.25 7.72386 11.4739 7.5 11.75 7.5H12.9753C12.7408 5.13779 10.8622 3.25922 8.5 3.02469V4.25C8.5 4.52614 8.27614 4.75 8 4.75ZM8.5 2.02054C11.4149 2.26101 13.739 4.5851 13.9795 7.5C13.9931 7.66487 14 7.83162 14 8C14 8.16838 13.9931 8.33513 13.9795 8.5C13.739 11.4149 11.4149 13.739 8.5 13.9795C8.33513 13.9931 8.16838 14 8 14C7.83162 14 7.66487 13.9931 7.5 13.9795C4.5851 13.739 2.26101 11.4149 2.02054 8.5C2.00694 8.33513 2 8.16838 2 8C2 7.83162 2.00694 7.66487 2.02054 7.5C2.26101 4.5851 4.5851 2.26101 7.5 2.02054C7.66487 2.00694 7.83162 2 8 2C8.16838 2 8.33513 2.00694 8.5 2.02054Z" fill="#E3E3E3"/>
</svg>
