<svg width="13" height="13" viewBox="0 0 13 13" fill="none" xmlns="http://www.w3.org/2000/svg">
<path d="M12.6875 11.5708L9.38352 8.26685C10.1775 7.31367 10.5734 6.09109 10.4889 4.85343C10.4045 3.61577 9.84607 2.45833 8.92994 1.62189C8.01381 0.785441 6.81047 0.334393 5.57025 0.362573C4.33003 0.390753 3.14842 0.895992 2.27123 1.77318C1.39404 2.65038 0.8888 3.83199 0.86062 5.0722C0.83244 6.31242 1.28349 7.51576 2.11993 8.43189C2.95638 9.34802 4.11382 9.90641 5.35148 9.99089C6.58914 10.0754 7.81172 9.67944 8.7649 8.88547L12.0689 12.1895L12.6875 11.5708ZM1.75002 5.18947C1.75002 4.41071 1.98095 3.64943 2.41361 3.00192C2.84627 2.3544 3.46122 1.84972 4.1807 1.5517C4.90019 1.25368 5.69189 1.1757 6.45569 1.32763C7.21949 1.47956 7.92108 1.85457 8.47175 2.40524C9.02242 2.95591 9.39743 3.6575 9.54936 4.42131C9.70129 5.18511 9.62332 5.97681 9.3253 6.69629C9.02728 7.41577 8.5226 8.03073 7.87508 8.46339C7.22756 8.89604 6.46628 9.12697 5.68752 9.12697C4.64359 9.12582 3.64274 8.7106 2.90457 7.97243C2.16639 7.23425 1.75118 6.23341 1.75002 5.18947Z" fill="#7E7885"/>
</svg>
