<svg width="14" height="14" viewBox="0 0 14 14" fill="none" xmlns="http://www.w3.org/2000/svg">
<path class="stroke-element" d="M8.21315 0.875C8.30578 0.875003 8.39601 0.904403 8.47086 0.958967C8.54571 1.01353 8.60131 1.09044 8.62965 1.17862L9.1109 2.674C9.31302 2.77287 9.5064 2.884 9.69102 3.00912L11.2275 2.67838C11.3181 2.65903 11.4125 2.66895 11.4971 2.70668C11.5817 2.74442 11.6521 2.80804 11.6983 2.88838L12.911 4.9875C12.9573 5.06779 12.9769 5.16071 12.967 5.25286C12.9571 5.34501 12.9182 5.43164 12.8559 5.50025L11.8015 6.664C11.8169 6.88715 11.8169 7.1111 11.8015 7.33425L12.8559 8.49975C12.9182 8.56836 12.9571 8.65499 12.967 8.74714C12.9769 8.83929 12.9573 8.93221 12.911 9.0125L11.6983 11.1125C11.652 11.1927 11.5815 11.2561 11.4969 11.2937C11.4124 11.3313 11.318 11.341 11.2275 11.3216L9.69102 10.9909C9.50727 11.1151 9.31302 11.2271 9.11177 11.326L8.62965 12.8214C8.60131 12.9096 8.54571 12.9865 8.47086 13.041C8.39601 13.0956 8.30578 13.125 8.21315 13.125H5.78765C5.69502 13.125 5.60479 13.0956 5.52994 13.041C5.45509 12.9865 5.39949 12.9096 5.37115 12.8214L4.89077 11.3269C4.68919 11.2283 4.49476 11.1157 4.3089 10.99L2.77327 11.3216C2.68268 11.341 2.58829 11.3311 2.50369 11.2933C2.41909 11.2556 2.34865 11.192 2.30252 11.1116L1.08977 9.0125C1.04347 8.93221 1.02385 8.83929 1.03376 8.74714C1.04366 8.65499 1.08258 8.56836 1.1449 8.49975L2.19927 7.33425C2.184 7.11168 2.184 6.88832 2.19927 6.66575L1.1449 5.50025C1.08258 5.43164 1.04366 5.34501 1.03376 5.25286C1.02385 5.16071 1.04347 5.06779 1.08977 4.9875L2.30252 2.8875C2.34878 2.80733 2.41927 2.74389 2.50386 2.70631C2.58845 2.66874 2.68278 2.65895 2.77327 2.67838L4.3089 3.01C4.4944 2.88488 4.68865 2.772 4.89077 2.67313L5.37202 1.17862C5.40028 1.09073 5.45561 1.01402 5.53011 0.959481C5.60461 0.904944 5.69445 0.875372 5.78677 0.875H8.21228H8.21315ZM7.8929 1.75H6.1079L5.6109 3.29612L5.27577 3.45975C5.11103 3.54037 4.95199 3.63217 4.79977 3.7345L4.49002 3.9445L2.90102 3.6015L2.00852 5.1485L3.0979 6.35425L3.07165 6.72525C3.05908 6.9082 3.05908 7.0918 3.07165 7.27475L3.0979 7.64575L2.00677 8.8515L2.90015 10.3985L4.48915 10.0564L4.7989 10.2655C4.95111 10.3678 5.11015 10.4596 5.2749 10.5402L5.61002 10.7039L6.1079 12.25H7.89465L8.3934 10.703L8.72765 10.5402C8.89222 10.4598 9.05098 10.368 9.20278 10.2655L9.51165 10.0564L11.1015 10.3985L11.994 8.8515L10.9038 7.64575L10.93 7.27475C10.9426 7.09151 10.9426 6.90762 10.93 6.72437L10.9038 6.35337L11.9949 5.1485L11.1015 3.6015L9.51165 3.94275L9.20278 3.7345C9.05099 3.63196 8.89223 3.54016 8.72765 3.45975L8.3934 3.297L7.89377 1.75H7.8929ZM7.0004 4.375C7.69659 4.375 8.36427 4.65156 8.85656 5.14384C9.34884 5.63613 9.6254 6.30381 9.6254 7C9.6254 7.69619 9.34884 8.36387 8.85656 8.85616C8.36427 9.34844 7.69659 9.625 7.0004 9.625C6.30421 9.625 5.63653 9.34844 5.14424 8.85616C4.65196 8.36387 4.3754 7.69619 4.3754 7C4.3754 6.30381 4.65196 5.63613 5.14424 5.14384C5.63653 4.65156 6.30421 4.375 7.0004 4.375ZM7.0004 5.25C6.53627 5.25 6.09115 5.43437 5.76296 5.76256C5.43477 6.09075 5.2504 6.53587 5.2504 7C5.2504 7.46413 5.43477 7.90925 5.76296 8.23744C6.09115 8.56563 6.53627 8.75 7.0004 8.75C7.46453 8.75 7.90965 8.56563 8.23784 8.23744C8.56602 7.90925 8.7504 7.46413 8.7504 7C8.7504 6.53587 8.56602 6.09075 8.23784 5.76256C7.90965 5.43437 7.46453 5.25 7.0004 5.25Z" fill="#E3E3E3"/>
</svg>
