<svg width="12" height="13" viewBox="0 0 12 13" fill="none" xmlns="http://www.w3.org/2000/svg">
<path d="M6 0.73822L10.138 4.78319L9.19533 5.70466L6.66667 3.23284V9.47983H5.33333V3.23284L2.80467 5.70466L1.862 4.78319L6 0.73822ZM0 10.7832V8.17647H1.33333V10.7832C1.33333 10.956 1.40357 11.1218 1.5286 11.244C1.65362 11.3662 1.82319 11.4349 2 11.4349H10C10.1768 11.4349 10.3464 11.3662 10.4714 11.244C10.5964 11.1218 10.6667 10.956 10.6667 10.7832V8.17647H12V10.7832C12 11.3017 11.7893 11.799 11.4142 12.1656C11.0391 12.5322 10.5304 12.7382 10 12.7382H2C1.46957 12.7382 0.960859 12.5322 0.585787 12.1656C0.210714 11.799 0 11.3017 0 10.7832Z" fill="#1F46C1"/>
</svg>