<svg width="15" height="14" viewBox="0 0 15 14" fill="none" xmlns="http://www.w3.org/2000/svg">
<path d="M5.44 13.1333C5.15556 13.1333 4.88889 13.0444 4.64 12.8667C4.39111 12.6533 4.21333 12.4044 4.10667 12.12C4.03556 11.8 4.07111 11.48 4.21333 11.16L5.17333 8.97333H2.4C2.15111 9.00889 1.92 8.97333 1.70667 8.86667C1.49333 8.76 1.31556 8.61778 1.17333 8.44C1.06667 8.22667 0.995556 7.99556 0.96 7.74667C0.96 7.49778 1.01333 7.26667 1.12 7.05333C2.36444 4.42222 3.12889 2.69778 3.41333 1.88C3.52 1.63111 3.68 1.43556 3.89333 1.29333C4.14222 1.11556 4.40889 1.00889 4.69333 0.973333H13.6C13.9911 1.00889 14.3111 1.16889 14.56 1.45333C14.8444 1.70222 14.9867 2.02222 14.9867 2.41333V5.93333C14.9867 6.28889 14.8444 6.60889 14.56 6.89333C14.3111 7.14222 13.9911 7.26667 13.6 7.26667H12.2667L6.4 12.76C6.11556 13.0089 5.79556 13.1333 5.44 13.1333ZM4.69333 1.98667C4.51556 1.98667 4.39111 2.07556 4.32 2.25333C3.92889 3.35556 3.16444 5.09778 2.02667 7.48C1.95556 7.62222 1.95556 7.76444 2.02667 7.90667C2.09778 8.01333 2.22222 8.04889 2.4 8.01333H5.70667L6.18667 8.65333V9.13333L5.12 11.5867C5.08444 11.6578 5.06667 11.7467 5.06667 11.8533C5.10222 11.9244 5.15556 11.9956 5.22667 12.0667C5.29778 12.1022 5.36889 12.12 5.44 12.12C5.54667 12.12 5.63556 12.0844 5.70667 12.0133L11.7867 6.46667L12.2667 6.30667H13.6C13.7067 6.30667 13.7956 6.27111 13.8667 6.2C13.9733 6.12889 14.0267 6.04 14.0267 5.93333V2.41333C14.0267 2.30667 13.9733 2.21778 13.8667 2.14667C13.7956 2.04 13.7067 1.98667 13.6 1.98667H4.69333Z" fill="#7F7F7F"/>
</svg>
