<svg width="15" height="14" viewBox="0 0 15 14" fill="none" xmlns="http://www.w3.org/2000/svg">
<path d="M9.56 0.973333C9.84444 1.00889 10.1111 1.11556 10.36 1.29333C10.6089 1.47111 10.7689 1.72 10.84 2.04C10.9467 2.32444 10.9289 2.62667 10.7867 2.94667L9.82667 5.13333H12.6C12.8489 5.09778 13.08 5.15111 13.2933 5.29333C13.5067 5.4 13.6667 5.56 13.7733 5.77333C13.9156 5.95111 13.9867 6.16444 13.9867 6.41333C14.0222 6.62667 13.9867 6.84 13.88 7.05333C12.6356 9.68444 11.8711 11.4089 11.5867 12.2267C11.48 12.4756 11.3022 12.6889 11.0533 12.8667C10.84 13.0444 10.5911 13.1333 10.3067 13.1333H1.4C1.00889 13.0978 0.671111 12.9556 0.386667 12.7067C0.137778 12.4222 0.0133333 12.0844 0.0133333 11.6933V8.17333C0.0133333 7.81778 0.137778 7.51556 0.386667 7.26667C0.671111 6.98222 1.00889 6.84 1.4 6.84H2.78667L8.6 1.34667C8.88444 1.13333 9.20444 1.00889 9.56 0.973333ZM10.3067 12.12C10.4844 12.12 10.6089 12.0311 10.68 11.8533C11.0711 10.7511 11.8533 9.00889 13.0267 6.62667C13.0622 6.48444 13.0444 6.36 12.9733 6.25333C12.9022 6.11111 12.7778 6.05778 12.6 6.09333H9.34667L8.81333 5.45333V4.97333L9.88 2.52C9.91556 2.44889 9.91556 2.37778 9.88 2.30667C9.88 2.2 9.84444 2.12889 9.77333 2.09333C9.70222 2.02222 9.61333 1.98667 9.50667 1.98667C9.43556 1.98667 9.36445 2.02222 9.29333 2.09333L3.21333 7.64L2.73333 7.8H1.4C1.29333 7.8 1.18667 7.83556 1.08 7.90667C1.00889 7.97778 0.991111 8.06667 1.02667 8.17333V11.6933C0.991111 11.8 1.00889 11.9067 1.08 12.0133C1.18667 12.0844 1.29333 12.12 1.4 12.12H10.3067Z" fill="#7F7F7F"/>
</svg>
