<svg width="12" height="13" viewBox="0 0 12 13" fill="none" xmlns="http://www.w3.org/2000/svg">
<path d="M6 0.5C6.78793 0.5 7.56815 0.655195 8.2961 0.956723C9.02405 1.25825 9.68549 1.70021 10.2426 2.25736C10.7998 2.81451 11.2417 3.47595 11.5433 4.2039C11.8448 4.93185 12 5.71207 12 6.5C12 7.28793 11.8448 8.06815 11.5433 8.7961C11.2417 9.52405 10.7998 10.1855 10.2426 10.7426C9.68549 11.2998 9.02405 11.7417 8.2961 12.0433C7.56815 12.3448 6.78793 12.5 6 12.5C4.4087 12.5 2.88258 11.8679 1.75736 10.7426C0.632141 9.61742 0 8.0913 0 6.5C0 4.9087 0.632141 3.38258 1.75736 2.25736C2.88258 1.13214 4.4087 0.5 6 0.5ZM6 1.5C4.67392 1.5 3.40215 2.02678 2.46447 2.96447C1.52678 3.90215 1 5.17392 1 6.5C1 7.82608 1.52678 9.09785 2.46447 10.0355C3.40215 10.9732 4.67392 11.5 6 11.5C7.32608 11.5 8.59785 10.9732 9.53553 10.0355C10.4732 9.09785 11 6.5 11 6.5C11 6.5 10.4732 3.90215 9.53553 2.96447C8.59785 2.02678 7.32608 1.5 6 1.5ZM6 8.5C6.19891 8.5 6.38968 8.57902 6.53033 8.71967C6.67098 8.86032 6.75 9.05109 6.75 9.25C6.75 9.44891 6.67098 9.63968 6.53033 9.78033C6.38968 9.92098 6.19891 10 6 10C5.80109 10 5.61032 9.92098 5.46967 9.78033C5.32902 9.63968 5.25 9.44891 5.25 9.25C5.25 9.05109 5.32902 8.86032 5.46967 8.71967C5.61032 8.57902 5.80109 8.5 6 8.5ZM6 3C6.11703 2.99996 6.23036 3.04097 6.32026 3.11589C6.41016 3.19081 6.47093 3.29489 6.492 3.41L6.5 3.5V7C6.50023 7.12495 6.45367 7.24545 6.36949 7.33778C6.28531 7.43012 6.16961 7.48759 6.04518 7.49888C5.92074 7.51017 5.79659 7.47446 5.69717 7.39878C5.59775 7.3231 5.53026 7.21295 5.508 7.09L5.5 7V3.5C5.5 3.36739 5.55268 3.24021 5.64645 3.14645C5.74021 3.05268 5.86739 3 6 3Z" fill="#F99500"/>
</svg>