<svg width="14" height="14" viewBox="0 0 14 14" fill="none" xmlns="http://www.w3.org/2000/svg">
<path d="M0.875 11.2717C0.875 11.0669 0.990728 10.8796 1.17394 10.788L2.625 10.0625H11.375L12.8261 10.788C13.0093 10.8796 13.125 11.0669 13.125 11.2717C13.125 11.5704 12.8829 11.8125 12.5842 11.8125H1.41578C1.11712 11.8125 0.875 11.5704 0.875 11.2717Z" fill="#D9D9D9"/>
<path fill-rule="evenodd" clip-rule="evenodd" d="M7 10.0625H11.375V3.9375C11.375 3.45425 10.9832 3.0625 10.5 3.0625H3.5C3.01675 3.0625 2.625 3.45425 2.625 3.9375V10.0625H7ZM3.5 3.9375H10.5V9.1875H7H3.5V3.9375ZM7 10.0625C6.75838 10.0625 6.5625 9.86662 6.5625 9.625C6.5625 9.38338 6.75838 9.1875 7 9.1875C7.24162 9.1875 7.4375 9.38338 7.4375 9.625C7.4375 9.86662 7.24162 10.0625 7 10.0625Z" fill="#D9D9D9"/>
</svg>