<svg width="12" height="12" viewBox="0 0 12 12" fill="none" xmlns="http://www.w3.org/2000/svg">
<path d="M11.9974 11.4399C11.9974 10.0227 11.9974 8.60551 11.9949 7.18954C11.9949 7.16481 11.9899 7.14008 11.9875 7.11411C11.9899 6.95458 11.9924 6.79629 11.9924 6.63676C11.9924 6.05059 11.9899 5.46441 11.9887 4.87948C11.9899 4.86093 11.9937 4.84362 11.9937 4.82507C11.9937 3.40292 11.9937 1.98077 11.9961 0.558618C11.9961 0.476999 11.9664 0.464633 11.8947 0.464633C11.6189 0.465869 11.3431 0.460923 11.0685 0.460923C10.6443 0.460923 10.22 0.463396 9.79579 0.464633C9.51626 0.462159 9.23797 0.464633 8.95845 0.457213C8.87681 0.454739 8.85579 0.476999 8.85703 0.558618C8.86074 1.22641 8.85703 1.89297 8.86074 2.56076C8.86074 2.65227 8.84466 2.68319 8.74324 2.68195C8.08276 2.67577 7.42353 2.68071 6.76305 2.677C6.67029 2.677 6.6406 2.69555 6.64184 2.79448C6.64679 3.45486 6.64432 4.11399 6.64184 4.77436C6.64184 4.81394 6.66287 4.86464 6.60721 4.88813C6.22997 4.88566 5.85274 4.88071 5.4755 4.88442C5.37903 4.88442 5.35429 4.85846 5.35429 4.762C5.35924 4.10904 5.35429 3.45609 5.36047 2.8019C5.36047 2.69679 5.32708 2.67824 5.23184 2.67824C4.57508 2.68195 3.91832 2.67824 3.26155 2.68195C3.16508 2.68195 3.14034 2.65722 3.14158 2.56199C3.14653 1.90162 3.14282 1.24125 3.14653 0.580878C3.14653 0.493076 3.12674 0.462159 3.03397 0.463396C2.76558 0.468342 2.49718 0.460923 2.22879 0.460923C1.79713 0.460923 1.36547 0.449793 0.933816 0.465869C0.641921 0.464633 0.350026 0.462159 0.0568947 0.460923C0.0383421 0.460923 0.0210263 0.464633 0.0148421 0.485656C-0.00618421 0.506679 0.00494737 0.533885 0.00494737 0.557381C0.00371053 1.70747 0.00371053 2.85755 0.00247368 4.00764C0.00247368 4.02866 0.00618421 4.05092 0.00865789 4.07194C0.00742105 4.34772 0.00494737 4.62225 0.00494737 4.89803C0.00371053 7.07824 0.00247368 9.2597 0 11.4399C0 11.5116 0.0148421 11.5413 0.0952368 11.5413C1.08224 11.5364 2.06924 11.5351 3.055 11.5339C3.11684 11.5339 3.14529 11.5215 3.14529 11.451C3.14282 10.7437 3.14282 10.0363 3.14158 9.32895C3.14158 8.61788 3.14158 7.9068 3.14158 7.19573C3.14158 7.14379 3.14158 7.10545 3.21332 7.10669C3.61653 7.11163 4.0185 7.11163 4.42171 7.11287C4.42171 7.8054 4.42295 8.49792 4.42542 9.19168C4.42542 9.23002 4.41305 9.27083 4.43532 9.30793C4.46995 9.3475 4.51695 9.32771 4.55776 9.32771C5.5225 9.32771 6.48724 9.324 7.45321 9.32648C7.54226 9.32648 7.56947 9.30545 7.56947 9.21271C7.56576 8.54862 7.56947 7.88454 7.567 7.2217C7.567 7.13018 7.59174 7.10545 7.68203 7.10669C8.02339 7.11163 8.36353 7.10916 8.70489 7.10916C8.85579 7.10916 8.85579 7.10916 8.85579 7.26251C8.85331 8.64756 8.85084 10.0338 8.84589 11.4189C8.84589 11.5079 8.8595 11.545 8.96216 11.545C9.93803 11.5401 10.9139 11.5401 11.8898 11.5376C11.9207 11.5376 11.9553 11.5475 11.9825 11.5203C12.011 11.498 11.9961 11.4671 11.9961 11.4399H11.9974Z" fill="#E3E3E3"/>
</svg>
