<svg width="18" height="18" viewBox="0 0 18 18" fill="none" xmlns="http://www.w3.org/2000/svg">
    <path d="M15.5656 15.5567H2.4302C2.27796 15.5562 2.12847 15.516 1.99651 15.4401C1.86454 15.3642 1.75466 15.2552 1.6777 15.1238C1.60046 14.9922 1.55952 14.8424 1.55909 14.6898C1.55865 14.5371 1.59872 14.3871 1.6752 14.2551L8.24687 2.88297C8.32268 2.75099 8.43199 2.64138 8.56377 2.56521C8.69554 2.48904 8.84509 2.44903 8.99729 2.44922C9.30687 2.44922 9.5952 2.61547 9.74937 2.88339L16.3031 14.2267C16.3853 14.3583 16.4307 14.5096 16.4347 14.6647C16.4387 14.8198 16.4012 14.9731 16.3259 15.1088C16.2507 15.2445 16.1405 15.3576 16.0068 15.4364C15.8731 15.5151 15.7208 15.5567 15.5656 15.5567ZM8.9752 3.29964H8.96812L2.3977 14.6701L2.4302 14.7238H15.5656C15.584 14.7238 15.6019 14.7059 15.6019 14.688C15.599 14.6834 15.5844 14.648 15.5815 14.6434L9.02729 3.29964H8.9752Z" fill="#FF4E40"/>
    <path d="M8.59229 7.14646V10.7719C8.59741 10.8939 8.64947 11.0092 8.7376 11.0937C8.82573 11.1782 8.9431 11.2254 9.0652 11.2254C9.1873 11.2254 9.30468 11.1782 9.3928 11.0937C9.48093 11.0092 9.533 10.8939 9.53812 10.7719V7.14646C9.53801 7.02091 9.4882 6.90052 9.39958 6.81159C9.31097 6.72266 9.19075 6.67243 9.0652 6.67188C8.80562 6.67188 8.59229 6.88562 8.59229 7.14646ZM9.06562 11.8756C8.80562 11.8756 8.5927 12.0865 8.5927 12.3473V12.6644C8.59358 12.7894 8.64372 12.9091 8.73226 12.9974C8.82079 13.0857 8.94058 13.1355 9.06562 13.136C9.32645 13.136 9.53853 12.9223 9.53853 12.6644V12.3473C9.53853 12.0865 9.32604 11.8756 9.06562 11.8756Z" fill="#FF4E40"/>
</svg>