<svg width="14" height="13" viewBox="0 0 14 13" fill="none" xmlns="http://www.w3.org/2000/svg">
<path class="stroke-element" d="M4 4C3.72386 4 3.5 4.22386 3.5 4.5C3.5 4.77614 3.72386 5 4 5H4.0075C4.28364 5 4.5075 4.77614 4.5075 4.5C4.5075 4.22386 4.28364 4 4.0075 4H4ZM7 4C6.72386 4 6.5 4.22386 6.5 4.5C6.5 4.77614 6.72386 5 7 5H7.0075C7.28364 5 7.5075 4.77614 7.5075 4.5C7.5075 4.22386 7.28364 4 7.0075 4H7ZM10 4C9.72386 4 9.5 4.22386 9.5 4.5C9.5 4.77614 9.72386 5 10 5H10.0075C10.2836 5 10.5075 4.77614 10.5075 4.5C10.5075 4.22386 10.2836 4 10.0075 4H10ZM1.04289 8.20711L0.68934 8.56066L1.04289 8.20711C0.855357 8.01957 0.75 7.76522 0.75 7.5V1.5C0.75 1.23478 0.855357 0.980429 1.04289 0.792893C1.23043 0.605357 1.48478 0.5 1.75 0.5H12.25C12.5152 0.5 12.7696 0.605357 12.9571 0.792893L13.3107 0.43934L12.9571 0.792894C13.1446 0.98043 13.25 1.23478 13.25 1.5V7.5C13.25 7.76522 13.1446 8.01957 12.9571 8.20711C12.7696 8.39464 12.5152 8.5 12.25 8.5H8.5C8.36739 8.5 8.24021 8.55268 8.14645 8.64645L5.25 11.5429V9C5.25 8.72386 5.02614 8.5 4.75 8.5H1.75C1.48478 8.5 1.23043 8.39464 1.04289 8.20711Z" stroke="#BBBBBB" stroke-linecap="round" stroke-linejoin="round"/>
</svg>
