<svg width="13" height="14" viewBox="0 0 13 14" fill="none" xmlns="http://www.w3.org/2000/svg">
<path fill-rule="evenodd" clip-rule="evenodd" d="M2.93994 4.35938H4.31719V6.88375H7.53107V8.261H4.31719V11.474H7.53107V12.8504H3.62857C3.44623 12.8501 3.27144 12.7776 3.14251 12.6487C3.01358 12.5198 2.94105 12.345 2.94082 12.1626L2.93994 4.35938Z" fill="#BAB4C2"/>
<path fill-rule="evenodd" clip-rule="evenodd" d="M0.875 1.6065C0.875 0.71925 1.59425 0 2.4815 0H9.36687C10.2541 0 10.9734 0.71925 10.9734 1.6065V3.213C10.9734 3.63907 10.8041 4.04769 10.5028 4.34897C10.2016 4.65024 9.79294 4.8195 9.36687 4.8195H2.4815C2.05543 4.8195 1.64681 4.65024 1.34553 4.34897C1.04426 4.04769 0.875 3.63907 0.875 3.213V1.6065ZM2.4815 1.37725C2.4207 1.37725 2.36239 1.4014 2.3194 1.4444C2.2764 1.48739 2.25225 1.5457 2.25225 1.6065V3.213C2.25225 3.33987 2.35462 3.44225 2.4815 3.44225H9.36687C9.42768 3.44225 9.48599 3.4181 9.52898 3.3751C9.57197 3.33211 9.59612 3.2738 9.59612 3.213V1.6065C9.59612 1.5457 9.57197 1.48739 9.52898 1.4444C9.48599 1.4014 9.42768 1.37725 9.36687 1.37725H2.4815ZM6.8425 7.34387C6.8425 6.45662 7.56175 5.73738 8.449 5.73738H10.7441C11.6314 5.73738 12.3506 6.45662 12.3506 7.34387V7.80325C12.3506 8.22932 12.1814 8.63794 11.8801 8.93922C11.5788 9.24049 11.1702 9.40975 10.7441 9.40975H8.449C8.02293 9.40975 7.61431 9.24049 7.31303 8.93922C7.01176 8.63794 6.8425 8.22932 6.8425 7.80325V7.34387ZM8.449 7.11462C8.41882 7.11451 8.38892 7.12035 8.361 7.13182C8.33309 7.14329 8.30771 7.16016 8.28633 7.18146C8.26495 7.20276 8.24798 7.22807 8.23641 7.25594C8.22483 7.28381 8.21887 7.3137 8.21887 7.34387V7.80325C8.21887 7.93013 8.32212 8.0325 8.449 8.0325H10.7441C10.8049 8.0325 10.8632 8.00835 10.9062 7.96535C10.9492 7.92236 10.9734 7.86405 10.9734 7.80325V7.34387C10.9734 7.28307 10.9492 7.22476 10.9062 7.18177C10.8632 7.13878 10.8049 7.11462 10.7441 7.11462H8.449ZM6.8425 11.935C6.8425 11.0469 7.56175 10.3276 8.449 10.3276H10.7441C11.6314 10.3276 12.3506 11.0469 12.3506 11.9341V12.3935C12.3506 12.8196 12.1814 13.2282 11.8801 13.5295C11.5788 13.8307 11.1702 14 10.7441 14H8.449C8.02293 14 7.61431 13.8307 7.31303 13.5295C7.01176 13.2282 6.8425 12.8196 6.8425 12.3935V11.935ZM8.449 11.7049C8.41882 11.7048 8.38892 11.7106 8.361 11.7221C8.33309 11.7335 8.30771 11.7504 8.28633 11.7717C8.26495 11.793 8.24798 11.8183 8.23641 11.8462C8.22483 11.8741 8.21887 11.9039 8.21887 11.9341V12.3935C8.21887 12.5204 8.32212 12.6227 8.449 12.6227H10.7441C10.8049 12.6227 10.8632 12.5986 10.9062 12.5556C10.9492 12.5126 10.9734 12.4543 10.9734 12.3935V11.9341C10.9734 11.8733 10.9492 11.815 10.9062 11.772C10.8632 11.729 10.8049 11.7049 10.7441 11.7049H8.449Z" fill="#BAB4C2"/>
</svg>
