<?xml version="1.0" encoding="UTF-8"?><svg id="Layer_1" xmlns="http://www.w3.org/2000/svg" viewBox="0 0 674.58 692.36"><defs><style>.cls-1,.cls-2{fill:#f6f6fa;}.cls-2{fill-rule:evenodd;}</style></defs><path class="cls-2" d="M266.67,384.58c10.77,0,32.18-.59,61.79-12.78,34.5-14.2,103.13-39.98,152.64-66.47,34.63-18.52,49.8-43.02,49.8-76.01,0-45.79-37.11-82.9-82.9-82.9h-191.84c-65.77,0-119.08,53.31-119.08,119.08s49.92,119.08,129.59,119.08Z"/><path class="cls-2" d="M299.12,466.64c0-32.24,19.41-61.3,49.18-73.66l60.41-25.07c61.11-25.36,128.37,19.55,128.37,85.71,0,51.26-41.56,92.81-92.82,92.8l-65.41-.02c-44.04-.01-79.73-35.71-79.73-79.75Z"/><path class="cls-1" d="M205.73,400.23h0c-37.91,0-68.65,30.73-68.65,68.65v8.89c0,37.91,30.73,68.64,68.65,68.64h0c37.91,0,68.65-30.73,68.65-68.64v-8.89c0-37.91-30.73-68.65-68.65-68.65Z"/></svg>