<svg width="18" height="16" viewBox="0 0 13 11" fill="none" xmlns="http://www.w3.org/2000/svg">
<path d="M10.334.668h-2c-.367 0-.667.3-.667.667 0 .366.3.666.667.666h2c1.1 0 2 .9 2 2s-.9 2-2 2h-2c-.367 0-.667.3-.667.667 0 .367.3.667.667.667h2a3.335 3.335 0 0 0 0-6.667Zm-6 3.333c0 .367.3.667.666.667h4c.367 0 .667-.3.667-.667 0-.366-.3-.666-.667-.666H5c-.367 0-.667.3-.667.666Zm1.333 2h-2c-1.1 0-2-.9-2-2s.9-2 2-2h2c.367 0 .667-.3.667-.666 0-.367-.3-.667-.667-.667h-2a3.335 3.335 0 0 0 0 6.667h2c.367 0 .667-.3.667-.667 0-.367-.3-.667-.667-.667Z" fill="#BBBBBB"/>
</svg>