<svg width="17" height="14" viewBox="0 0 17 14" fill="none" xmlns="http://www.w3.org/2000/svg">
<path fill-rule="evenodd" clip-rule="evenodd" d="M14.6751 9.36741L2.88113 0.295111C2.66827 0.131373 2.36409 0.165025 2.19217 0.37133L0.326558 2.61006C0.147271 2.82521 0.179636 3.14564 0.398322 3.32059L11.8831 12.5084L14.6751 9.36741ZM13.1818 13.1724L15.6915 13.7998C16.0577 13.8914 16.3894 13.5597 16.2979 13.1935L15.6098 10.441L13.1818 13.1724ZM5.5 12.0019C5.22386 12.0019 5 12.2258 5 12.5019V13.5019C5 13.7781 5.22386 14.0019 5.5 14.0019H7.5C7.77614 14.0019 8 13.7781 8 13.5019V12.5019C8 12.2258 7.77614 12.0019 7.5 12.0019H5.5ZM0 12.5019C0 12.2258 0.223858 12.0019 0.5 12.0019H2.5C2.77614 12.0019 3 12.2258 3 12.5019V13.5019C3 13.7781 2.77614 14.0019 2.5 14.0019H0.5C0.223858 14.0019 0 13.7781 0 13.5019V12.5019Z" fill="#D9D9D9"/>
</svg>
