<svg width="12" height="12" viewBox="0 0 12 12" fill="none" xmlns="http://www.w3.org/2000/svg">
<path class="jira" id="Vector" d="M5.718 0C5.718 1.44 6.9 2.61 8.328 2.61H9.396V3.63C9.396 5.07 10.56 6.234 12 6.24V0.504C12 0.370331 11.9469 0.242137 11.8524 0.147618C11.7579 0.0530999 11.6297 0 11.496 0H5.718ZM2.862 2.88C2.86547 3.56955 3.14093 4.22988 3.62853 4.71747C4.11612 5.20507 4.77645 5.48053 5.466 5.484H6.546V6.516C6.54947 7.20555 6.82493 7.86588 7.31253 8.35347C7.80012 8.84107 8.46045 9.11653 9.15 9.12V3.378C9.14829 3.24645 9.09527 3.12078 9.00225 3.02775C8.90922 2.93473 8.78355 2.88171 8.652 2.88H2.862ZM0 5.76C0 7.2 1.17 8.364 2.61 8.364H3.678V9.396C3.684 10.83 4.848 12 6.282 12V6.258C6.282 6.12433 6.2289 5.99614 6.13438 5.90162C6.03986 5.8071 5.91167 5.754 5.778 5.754L0 5.76Z" fill="#E3E3E3"/>
</svg>
