<svg width="16" height="17" viewBox="0 0 16 17" fill="none" xmlns="http://www.w3.org/2000/svg">
<path fill-rule="evenodd" clip-rule="evenodd" d="M12.6774 5.70129L9.95742 2.90129L9.71742 2.82129H4.35742L3.95742 3.22129V5.22129H4.75742V3.62129H8.75742V6.82129H11.9574V7.62129H12.7574V6.02129L12.6774 5.70129ZM9.55742 6.02129V3.62129L11.8774 6.02129H9.55742Z" fill="#7E7885"/>
<path d="M3.95742 11.6213V12.8213L4.35742 13.2213H7.95742V12.4213H4.75742V11.6213H3.95742Z" fill="#7E7885"/>
<path d="M12.7574 14.8213H11.9574V12.4213H9.55742V11.6213H11.9574V9.22129H12.7574V11.6213H15.1574V12.4213H12.7574V14.8213Z" fill="#7E7885"/>
<path d="M5.84043 8.53845L3.29484 5.99286C3.13864 5.83665 2.88537 5.83665 2.72916 5.99286C2.57295 6.14907 2.57295 6.40234 2.72916 6.55855L4.5919 8.42129H0.841797V9.22129H4.5919L2.72916 11.084C2.57295 11.2402 2.57295 11.4935 2.72916 11.6497C2.88537 11.8059 3.13864 11.8059 3.29484 11.6497L5.84043 9.10413C5.99664 8.94792 5.99664 8.69466 5.84043 8.53845Z" fill="#7E7885"/>
</svg>
