<svg width="12" height="11" viewBox="0 0 12 11" fill="none" xmlns="http://www.w3.org/2000/svg">
<path d="M9.91839 3.5928H9.11465C9.42596 3.0541 9.59409 2.44464 9.603 1.82252C9.681 0.550765 7.82594 -0.124112 7.19515 1.07642C6.56652 2.2502 5.6432 3.24014 4.51599 3.94889C4.4837 3.84623 4.41969 3.75644 4.33316 3.69246C4.24663 3.62847 4.14203 3.59358 4.03442 3.5928H1.46378C1.32886 3.5928 1.19947 3.64639 1.10407 3.74179C1.00867 3.83719 0.955078 3.96658 0.955078 4.1015V9.86678C0.955078 10.0017 1.00867 10.1311 1.10407 10.2265C1.19947 10.3219 1.32886 10.3755 1.46378 10.3755H2.92206C3.23143 10.388 3.53775 10.31 3.80341 10.1509C4.06908 9.9919 4.28255 9.75878 4.41764 9.48017C5.96929 9.87576 7.56423 10.0763 9.16551 10.077C9.52212 10.079 9.86861 9.95855 10.147 9.7357C10.4254 9.51285 10.6189 9.20116 10.695 8.85277L11.4377 5.51569C11.4886 5.28661 11.4878 5.04907 11.4355 4.82032C11.3831 4.59157 11.2804 4.37736 11.135 4.19323C10.9895 4.0091 10.8048 3.85968 10.5944 3.75583C10.384 3.65197 10.153 3.59628 9.91839 3.5928ZM2.92206 9.35808H1.95552V4.6102H3.5325V8.8392C3.5298 8.91453 3.51143 8.98847 3.47857 9.0563C3.44572 9.12414 3.39909 9.18439 3.34165 9.2332C3.28422 9.28202 3.21725 9.31833 3.14501 9.33983C3.07276 9.36133 2.99683 9.36755 2.92206 9.35808ZM10.4542 5.28847L9.71152 8.62555C9.68442 8.74725 9.61648 8.85601 9.519 8.93374C9.42152 9.01148 9.30037 9.05352 9.17569 9.05286C7.61485 9.05509 6.06019 8.85677 4.5499 8.46276V5.11551C6.04736 4.30172 7.27266 3.06581 8.0735 1.56138C8.1549 1.33416 8.59916 1.54104 8.57203 1.7886C8.55168 2.43296 8.33803 3.22653 7.79202 3.53175C7.67959 3.58157 7.58603 3.66604 7.52502 3.77282C7.464 3.87959 7.43873 4.00308 7.45289 4.12524C7.45817 4.25628 7.51419 4.38015 7.60912 4.47064C7.70404 4.56114 7.83044 4.61119 7.96159 4.6102H9.92857C10.0095 4.61298 10.0888 4.63338 10.161 4.66999C10.2332 4.70659 10.2965 4.75852 10.3466 4.82214C10.3966 4.88576 10.4322 4.95954 10.4508 5.03832C10.4694 5.11711 10.4706 5.19901 10.4542 5.27829V5.28847Z" fill="#E3E3E3"/>
</svg>
