<svg xmlns="http://www.w3.org/2000/svg" width="16" height="16" viewBox="0 0 16 16" fill="none">
  <path d="M4.95842 6.53298C5.03681 7.08505 5.331 8.02958 6.41617 8.43652C7.52778 8.85418 7.52778 9.18318 7.52778 9.40065V9.47672C6.84778 9.67925 6.34722 10.2967 6.34722 11.034C6.34722 11.9347 7.08861 12.6673 8 12.6673C8.91139 12.6673 9.65278 11.9347 9.65278 11.034C9.65278 10.2967 9.15222 9.67925 8.47222 9.47672V9.40065C8.47222 9.18318 8.47222 8.85418 9.58383 8.43698C10.669 8.03005 10.9632 7.08552 11.0416 6.53345C11.7362 6.33978 12.25 5.71492 12.25 4.96732C12.25 4.06665 11.5086 3.33398 10.5972 3.33398C9.68583 3.33398 8.94444 4.06665 8.94444 4.96732C8.94444 5.69158 9.42706 6.29965 10.0891 6.51338C10.0202 6.85638 9.82231 7.34918 9.2495 7.56432C8.68661 7.77525 8.28003 8.00905 8 8.28112C7.71997 8.00905 7.31386 7.77525 6.7505 7.56432C6.17769 7.34918 5.97936 6.85638 5.91089 6.51338C6.57294 6.29965 7.05556 5.69158 7.05556 4.96732C7.05556 4.06665 6.31417 3.33398 5.40278 3.33398C4.49139 3.33398 3.75 4.06665 3.75 4.96732C3.75 5.71492 4.26378 6.33978 4.95842 6.53298ZM10.5972 4.26732C10.9877 4.26732 11.3056 4.58138 11.3056 4.96732C11.3056 5.35325 10.9877 5.66732 10.5972 5.66732C10.2067 5.66732 9.88889 5.35325 9.88889 4.96732C9.88889 4.58138 10.2067 4.26732 10.5972 4.26732ZM8.70833 11.034C8.70833 11.4199 8.39053 11.734 8 11.734C7.60947 11.734 7.29167 11.4199 7.29167 11.034C7.29167 10.6481 7.60947 10.334 8 10.334C8.39053 10.334 8.70833 10.6481 8.70833 11.034ZM5.40278 4.26732C5.79331 4.26732 6.11111 4.58138 6.11111 4.96732C6.11111 5.35325 5.79331 5.66732 5.40278 5.66732C5.01225 5.66732 4.69444 5.35325 4.69444 4.96732C4.69444 4.58138 5.01225 4.26732 5.40278 4.26732Z" fill="#E3E3E3"/>
</svg>