<svg width="16" height="16" viewBox="0 0 16 16" fill="none" xmlns="http://www.w3.org/2000/svg">
<path id="Icon" d="M7.5 4.25C7.5 4.52614 7.72386 4.75 8 4.75C8.27614 4.75 8.5 4.52614 8.5 4.25V2.52242C11.1386 2.7602 13.2398 4.86143 13.4776 7.5H11.75C11.4739 7.5 11.25 7.72386 11.25 8C11.25 8.27614 11.4739 8.5 11.75 8.5H13.4776C13.2398 11.1386 11.1386 13.2398 8.5 13.4776V11.75C8.5 11.4739 8.27614 11.25 8 11.25C7.72386 11.25 7.5 11.4739 7.5 11.75V13.4776C4.86143 13.2398 2.7602 11.1386 2.52242 8.5H4.25C4.52614 8.5 4.75 8.27614 4.75 8C4.75 7.72386 4.52614 7.5 4.25 7.5H2.52242C2.7602 4.86143 4.86143 2.7602 7.5 2.52242V4.25Z" stroke="#E3E3E3" stroke-linecap="round"/>
</svg>