<svg width="20" height="20" viewBox="0 0 20 20" fill="none" xmlns="http://www.w3.org/2000/svg">
<g id="mi:search">
<path id="Vector" d="M8.60344 4.40014C7.48885 4.40014 6.41991 4.84294 5.63177 5.63112C4.84363 6.4193 4.40086 7.4883 4.40086 8.60296C4.40086 9.71762 4.84363 10.7866 5.63177 11.5748C6.41991 12.363 7.48885 12.8058 8.60344 12.8058C9.71804 12.8058 10.787 12.363 11.5751 11.5748C12.3633 10.7866 12.806 9.71762 12.806 8.60296C12.806 7.4883 12.3633 6.4193 11.5751 5.63112C10.787 4.84294 9.71804 4.40014 8.60344 4.40014ZM3 8.60296C3.00013 7.71117 3.21308 6.83228 3.62117 6.03934C4.02925 5.2464 4.62068 4.56232 5.3463 4.04394C6.07193 3.52556 6.91078 3.18786 7.79315 3.0589C8.67553 2.92994 9.57593 3.01345 10.4195 3.30249C11.2632 3.59152 12.0256 4.07774 12.6435 4.72072C13.2614 5.36371 13.717 6.14489 13.9723 6.99936C14.2276 7.85382 14.2753 8.75689 14.1115 9.6335C13.9476 10.5101 13.5769 11.335 13.0302 12.0395L16.8034 15.8129C16.931 15.945 17.0016 16.122 17 16.3056C16.9984 16.4893 16.9247 16.665 16.7948 16.7948C16.665 16.9247 16.4893 16.9984 16.3057 17C16.122 17.0016 15.9451 16.931 15.813 16.8034L12.0398 13.0299C11.2115 13.673 10.2194 14.0708 9.17623 14.178C8.13311 14.2852 7.08084 14.0975 6.13908 13.6363C5.19732 13.1751 4.40387 12.4589 3.84894 11.5691C3.29401 10.6793 2.99988 9.65164 3 8.60296Z" fill="#E3E3E3"/>
</g>
</svg>
