<svg width="16" height="20" viewBox="0 0 16 20" fill="none" xmlns="http://www.w3.org/2000/svg">
<path d="M10.1176 1.66699V3.73866C10.1176 5.19533 10.1176 5.92366 10.2967 6.62283C10.4742 7.32283 10.8242 7.96449 11.5234 9.24783L12.4701 10.9878C14.2517 14.2595 15.1426 15.8962 14.4117 17.1087L14.4001 17.127C13.6592 18.3337 11.7726 18.3337 8.00091 18.3337C4.22925 18.3337 2.34258 18.3337 1.60091 17.127L1.59008 17.1087C0.859246 15.8962 1.75008 14.2595 3.53175 10.9878L4.47841 9.24783C5.17841 7.96449 5.52675 7.32283 5.70508 6.62283C5.88341 5.92283 5.88341 5.19533 5.88341 3.73949V1.66699M5.50091 13.3353L5.50841 13.3337M10.5009 15.002L10.5084 15.0003M4.66758 1.66699H11.3342" stroke="#FF4E40" stroke-width="1.5" stroke-linecap="round" stroke-linejoin="round"/>
<path d="M4.25 9.63037C5.08333 8.66954 6.41667 9.36204 8 10.2654C10.0833 11.4537 11.3333 10.542 11.75 9.67954" stroke="#FF4E40" stroke-width="1.5" stroke-linecap="round" stroke-linejoin="round"/>
</svg>
