<svg width="15" height="16" viewBox="0 0 15 16" fill="none" xmlns="http://www.w3.org/2000/svg">
<path d="M4.88165 5.76562C5.02069 5.76562 5.15403 5.82086 5.25234 5.91917C5.35065 6.01748 5.40588 6.15082 5.40588 6.28986V12.5806C5.40588 12.7197 5.35065 12.853 5.25234 12.9513C5.15403 13.0496 5.02069 13.1049 4.88165 13.1049C4.74262 13.1049 4.60928 13.0496 4.51097 12.9513C4.41265 12.853 4.35742 12.7197 4.35742 12.5806V6.28986C4.35742 6.15082 4.41265 6.01748 4.51097 5.91917C4.60928 5.82086 4.74262 5.76562 4.88165 5.76562ZM7.50281 5.76562C7.64184 5.76562 7.77518 5.82086 7.87349 5.91917C7.97181 6.01748 8.02704 6.15082 8.02704 6.28986V12.5806C8.02704 12.7197 7.97181 12.853 7.87349 12.9513C7.77518 13.0496 7.64184 13.1049 7.50281 13.1049C7.36377 13.1049 7.23043 13.0496 7.13212 12.9513C7.03381 12.853 6.97858 12.7197 6.97858 12.5806V6.28986C6.97858 6.15082 7.03381 6.01748 7.13212 5.91917C7.23043 5.82086 7.36377 5.76562 7.50281 5.76562ZM10.6482 6.28986C10.6482 6.15082 10.593 6.01748 10.4946 5.91917C10.3963 5.82086 10.263 5.76562 10.124 5.76562C9.98493 5.76562 9.85159 5.82086 9.75327 5.91917C9.65496 6.01748 9.59973 6.15082 9.59973 6.28986V12.5806C9.59973 12.7197 9.65496 12.853 9.75327 12.9513C9.85159 13.0496 9.98493 13.1049 10.124 13.1049C10.263 13.1049 10.3963 13.0496 10.4946 12.9513C10.593 12.853 10.6482 12.7197 10.6482 12.5806V6.28986Z" fill="#D9D9D9"/>
<path d="M14.3175 3.14538C14.3175 3.42345 14.207 3.69013 14.0104 3.88676C13.8138 4.08338 13.5471 4.19385 13.269 4.19385H12.7448V13.63C12.7448 14.1861 12.5239 14.7195 12.1306 15.1127C11.7374 15.506 11.204 15.7269 10.6479 15.7269H4.35712C3.80098 15.7269 3.26762 15.506 2.87437 15.1127C2.48112 14.7195 2.26019 14.1861 2.26019 13.63V4.19385H1.73596C1.45789 4.19385 1.19121 4.08338 0.994587 3.88676C0.797963 3.69013 0.6875 3.42345 0.6875 3.14538V2.09692C0.6875 1.81885 0.797963 1.55217 0.994587 1.35555C1.19121 1.15892 1.45789 1.04846 1.73596 1.04846H5.40558C5.40558 0.770392 5.51604 0.503712 5.71266 0.307087C5.90929 0.110463 6.17597 0 6.45404 0L8.55096 0C8.82903 0 9.09571 0.110463 9.29234 0.307087C9.48896 0.503712 9.59942 0.770392 9.59942 1.04846H13.269C13.5471 1.04846 13.8138 1.15892 14.0104 1.35555C14.207 1.55217 14.3175 1.81885 14.3175 2.09692V3.14538ZM3.43237 4.19385L3.30865 4.25571V13.63C3.30865 13.9081 3.41912 14.1747 3.61574 14.3714C3.81237 14.568 4.07905 14.6785 4.35712 14.6785H10.6479C10.926 14.6785 11.1926 14.568 11.3893 14.3714C11.5859 14.1747 11.6963 13.9081 11.6963 13.63V4.25571L11.5726 4.19385H3.43237ZM1.73596 3.14538H13.269V2.09692H1.73596V3.14538Z" fill="#D9D9D9"/>
</svg>
