<svg width="12" height="12" viewBox="0 0 12 12" fill="none" xmlns="http://www.w3.org/2000/svg">
<g id="N1m0rK">
<path id="Vector" d="M6.44426 0.000422375C7.38873 0.000422375 8.33319 4.00918e-06 9.27765 0.000422375C10.0993 0.00104992 10.7758 0.315034 11.2843 0.960991C11.7504 1.55298 11.892 2.23324 11.7688 2.96978C11.6395 3.74292 11.1691 4.27111 10.5166 4.65391C9.82822 5.05784 9.09796 5.37748 8.36624 5.69313C7.4337 6.09518 6.49321 6.47799 5.5454 6.84176C4.4564 7.25971 3.34773 7.28062 2.26018 6.85347C0.994206 6.35624 0.243238 5.41868 0.0438869 4.06485C-0.182868 2.52338 0.625207 1.09173 1.9144 0.412513C2.452 0.129279 3.02579 -0.000832723 3.63201 4.00918e-06C4.56956 0.00125911 5.50691 0.000422375 6.44447 0.000422375H6.44426Z" fill="#E3E3E3"/>
<path id="Vector_2" d="M8.27837 11.9991C7.94744 11.9991 7.61631 12.0016 7.28538 11.9984C6.95215 11.9951 6.62583 11.9434 6.32125 11.8045C5.56903 11.4615 5.08749 10.8883 4.92077 10.0758C4.76849 9.33448 4.94295 8.65882 5.41654 8.07038C5.67132 7.75368 6.00058 7.52714 6.37815 7.37192C6.97621 7.12613 7.57238 6.87511 8.17127 6.631C8.46601 6.51092 8.77288 6.44671 9.09356 6.43374C9.85833 6.40278 10.5187 6.65045 11.0858 7.15625C11.586 7.60223 11.874 8.16096 11.969 8.82407C12.0792 9.59407 11.8924 10.2873 11.426 10.9019C10.9846 11.4836 10.3928 11.8286 9.67488 11.9593C9.36424 12.0158 9.05068 11.9959 8.73795 11.9988C8.58462 12.0003 8.43129 11.9991 8.27816 11.9991H8.27837Z" fill="#E3E3E3"/>
<path id="Vector_3" d="M2.05355 7.60955C3.07101 7.60432 3.94812 8.35006 4.10459 9.35623C4.1891 9.89885 4.1596 10.4331 3.87909 10.9251C3.52829 11.5403 3.00052 11.8959 2.29557 11.9844C1.41261 12.0951 0.530693 11.5805 0.172154 10.7525C0.0660976 10.5078 0.0112916 10.2505 0.00292431 9.98336C-0.00899913 9.6016 0.00961818 9.2234 0.171526 8.86925C0.47777 8.20007 0.987549 7.78443 1.71634 7.6472C1.83265 7.62524 1.94896 7.60432 2.05334 7.60976L2.05355 7.60955Z" fill="#E3E3E3"/>
</g>
</svg>
