<svg width="12" height="12" viewBox="0 0 12 12" fill="none" xmlns="http://www.w3.org/2000/svg">
<g id="icons" clip-path="url(#clip0_14617_88284)">
<path id="Vector" d="M11.1392 4.91153C11.4115 4.09438 11.3177 3.19923 10.8823 2.45598C10.2276 1.31595 8.91129 0.729431 7.62577 1.00545C7.05387 0.361181 6.23225 -0.00519434 5.37085 5.56587e-05C4.05683 -0.00294434 2.89093 0.843079 2.48665 2.09335C1.64251 2.26623 0.913881 2.79463 0.487482 3.5435C-0.172142 4.68053 -0.0217675 6.1138 0.859506 7.08882C0.587256 7.90597 0.681006 8.80112 1.11638 9.54437C1.77115 10.6844 3.08743 11.2709 4.37295 10.9949C4.94447 11.6392 5.76647 12.0055 6.62787 11.9999C7.94265 12.0033 9.10892 11.1565 9.51319 9.90512C10.3573 9.73225 11.086 9.20385 11.5124 8.45497C12.1713 7.31795 12.0205 5.8858 11.1396 4.91078L11.1392 4.91153ZM6.62862 11.2158C6.1025 11.2165 5.59285 11.0324 5.18897 10.6953C5.20735 10.6855 5.23922 10.6679 5.25985 10.6552L7.64939 9.27514C7.77165 9.20577 7.84664 9.07564 7.8459 8.93502V5.56628L8.85579 6.14943C8.86667 6.15468 8.87379 6.16517 8.87529 6.17717V8.96687C8.87379 10.2074 7.86914 11.2132 6.62862 11.2158ZM1.79701 9.15212C1.53338 8.69687 1.43851 8.16322 1.52888 7.64535C1.54651 7.65585 1.57763 7.67497 1.59976 7.68772L3.9893 9.06775C4.11043 9.13862 4.26043 9.13862 4.38193 9.06775L7.29912 7.3832V8.54947C7.29987 8.56147 7.29425 8.5731 7.28487 8.5806L4.86945 9.97525C3.79355 10.5948 2.41953 10.2265 1.79738 9.1521L1.79701 9.15212ZM1.16813 3.93613C1.43063 3.48013 1.84503 3.13135 2.33853 2.95023C2.33853 2.97085 2.3374 3.00723 2.3374 3.03273V5.79317C2.33665 5.93342 2.41165 6.06355 2.53353 6.13292L5.45072 7.8171L4.44082 8.40022C4.4307 8.40697 4.41795 8.4081 4.4067 8.40322L1.9909 7.00745C0.917256 6.38567 0.549006 5.01203 1.16776 3.9365L1.16813 3.93613ZM9.46554 5.86705L6.54835 4.1825L7.55825 3.59975C7.56837 3.593 7.58112 3.59188 7.59237 3.59675L10.0082 4.9914C11.0837 5.61278 11.4523 6.9887 10.8309 8.06422C10.5681 8.51947 10.154 8.86825 9.66092 9.04975V6.2068C9.66204 6.06655 9.58742 5.9368 9.46592 5.86705H9.46554ZM10.4706 4.35425C10.4529 4.34338 10.4218 4.32463 10.3997 4.31188L8.01015 2.93185C7.88902 2.86098 7.73902 2.86098 7.61752 2.93185L4.70033 4.61638V3.4501C4.69957 3.4381 4.7052 3.42648 4.71457 3.41898L7.13 2.02545C8.20589 1.40481 9.58142 1.7742 10.2017 2.85048C10.4638 3.305 10.5587 3.83713 10.4698 4.35425H10.4706ZM4.15133 6.43292L3.14105 5.8498C3.13018 5.84455 3.12305 5.83405 3.12155 5.82205V3.03235C3.1223 1.79033 4.12995 0.783806 5.37197 0.784556C5.89735 0.784556 6.40587 0.969056 6.80975 1.30506C6.79137 1.31481 6.75987 1.33243 6.73887 1.34518L4.34933 2.72523C4.22708 2.7946 4.15207 2.92435 4.15282 3.06498L4.15133 6.43217V6.43292ZM4.69995 5.25015L5.99935 4.49975L7.29875 5.24978V6.75017L5.99935 7.5002L4.69995 6.75017V5.25015Z" fill="black"/>
</g>
<defs>
<clipPath id="clip0_14617_88284">
<rect width="12" height="12" fill="black"/>
</clipPath>
</defs>
</svg>
