<svg width="16" height="16" viewBox="0 0 16 16" fill="none" xmlns="http://www.w3.org/2000/svg">
<g id="icons">
<path id="Union" fill-rule="evenodd" clip-rule="evenodd" d="M12.4494 9.57713L4.71382 3.62665C4.50096 3.46292 4.19677 3.49657 4.02485 3.70287L2.99257 4.9416C2.81329 5.15675 2.84565 5.47718 3.06434 5.65213L10.5881 11.6711L12.4494 9.57713ZM11.4539 12.1138L12.8576 12.4647C13.2238 12.5562 13.5554 12.2245 13.4639 11.8584L13.0725 10.2928L11.4539 12.1138ZM6.49935 11.3335C6.22321 11.3335 5.99935 11.5573 5.99935 11.8335V12.1668C5.99935 12.443 6.22321 12.6668 6.49935 12.6668H7.49935C7.77549 12.6668 7.99935 12.443 7.99935 12.1668V11.8335C7.99935 11.5573 7.77549 11.3335 7.49935 11.3335H6.49935ZM2.66602 11.8335C2.66602 11.5573 2.88987 11.3335 3.16602 11.3335H4.16602C4.44216 11.3335 4.66602 11.5573 4.66602 11.8335V12.1668C4.66602 12.443 4.44216 12.6668 4.16602 12.6668H3.16602C2.88987 12.6668 2.66602 12.443 2.66602 12.1668V11.8335Z" fill="black"/>
</g>
</svg>
