<svg width="16" height="13" viewBox="0 0 16 13" fill="none" xmlns="http://www.w3.org/2000/svg">
<g id="icons">
<g id="Vector">
<path d="M15.2253 3.75092H12.881V6.09524C12.881 6.21959 12.8316 6.33885 12.7436 6.42678C12.6557 6.5147 12.5365 6.5641 12.4121 6.5641C12.2877 6.5641 12.1685 6.5147 12.0806 6.42678C11.9926 6.33885 11.9432 6.21959 11.9432 6.09524V3.75092H9.59891C9.47456 3.75092 9.3553 3.70152 9.26737 3.61359C9.17945 3.52566 9.13005 3.4064 9.13005 3.28205C9.13005 3.1577 9.17945 3.03844 9.26737 2.95051C9.3553 2.86259 9.47456 2.81319 9.59891 2.81319H11.9432V0.468865C11.9432 0.344514 11.9926 0.225256 12.0806 0.137327C12.1685 0.0493979 12.2877 0 12.4121 0C12.5365 0 12.6557 0.0493979 12.7436 0.137327C12.8316 0.225256 12.881 0.344514 12.881 0.468865V2.81319H15.2253C15.3496 2.81319 15.4689 2.86259 15.5568 2.95051C15.6448 3.03844 15.6941 3.1577 15.6941 3.28205C15.6941 3.4064 15.6448 3.52566 15.5568 3.61359C15.4689 3.70152 15.3496 3.75092 15.2253 3.75092Z" fill="#7990DA"/>
<path d="M8.19232 2.81413H2.33151C1.29573 2.81413 0.456055 3.6538 0.456055 4.68959V10.316C0.456055 11.3518 1.29573 12.1914 2.33151 12.1914H11.0055C12.0413 12.1914 12.881 11.3518 12.881 10.316V7.97164H11.9432V10.316C11.9432 10.8339 11.5234 11.2537 11.0055 11.2537H2.33151C1.81362 11.2537 1.39378 10.8339 1.39378 10.316V4.68959C1.39378 4.1717 1.81362 3.75186 2.33151 3.75186H8.19232V2.81413Z" fill="#7990DA"/>
</g>
</g>
</svg>
