<svg width="14" height="14" viewBox="0 0 14 14" fill="none" xmlns="http://www.w3.org/2000/svg">
<g id="Group">
<path id="Vector" d="M12.25 0.875C12.4821 0.875 12.7046 0.967187 12.8687 1.13128C13.0328 1.29538 13.125 1.51794 13.125 1.75V12.25C13.125 12.4821 13.0328 12.7046 12.8687 12.8687C12.7046 13.0328 12.4821 13.125 12.25 13.125H1.75C1.51794 13.125 1.29538 13.0328 1.13128 12.8687C0.967187 12.7046 0.875 12.4821 0.875 12.25V1.75C0.875 1.51794 0.967187 1.29538 1.13128 1.13128C1.29538 0.967187 1.51794 0.875 1.75 0.875H12.25ZM1.75 0C1.28587 0 0.840752 0.184374 0.512563 0.512563C0.184374 0.840752 0 1.28587 0 1.75L0 12.25C0 12.7141 0.184374 13.1592 0.512563 13.4874C0.840752 13.8156 1.28587 14 1.75 14H12.25C12.7141 14 13.1592 13.8156 13.4874 13.4874C13.8156 13.1592 14 12.7141 14 12.25V1.75C14 1.28587 13.8156 0.840752 13.4874 0.512563C13.1592 0.184374 12.7141 0 12.25 0L1.75 0Z" fill="white"/>
<path id="Vector_2" d="M9.9353 4.06506C9.97605 4.1057 10.0084 4.15397 10.0304 4.20713C10.0525 4.26028 10.0638 4.31726 10.0638 4.37481C10.0638 4.43235 10.0525 4.48933 10.0304 4.54248C10.0084 4.59564 9.97605 4.64392 9.9353 4.68456L4.6853 9.93456C4.60315 10.0167 4.49173 10.0629 4.37555 10.0629C4.25937 10.0629 4.14795 10.0167 4.0658 9.93456C3.98365 9.8524 3.9375 9.74098 3.9375 9.62481C3.9375 9.50863 3.98365 9.39721 4.0658 9.31506L9.3158 4.06506C9.35644 4.02431 9.40472 3.99199 9.45787 3.96993C9.51103 3.94788 9.56801 3.93652 9.62555 3.93652C9.6831 3.93652 9.74008 3.94788 9.79323 3.96993C9.84638 3.99199 9.89466 4.02431 9.9353 4.06506Z" fill="white"/>
</g>
</svg>
