<svg width="15" height="13" viewBox="0 0 15 13" fill="none" xmlns="http://www.w3.org/2000/svg">
<path d="M7.67962 4.92857H9.82248C9.93615 4.92857 10.0452 4.88342 10.1255 4.80305C10.2059 4.72267 10.2511 4.61367 10.2511 4.5C10.2511 4.38634 10.2059 4.27733 10.1255 4.19696C10.0452 4.11658 9.93615 4.07143 9.82248 4.07143H7.67962V1.92857C7.67962 1.81491 7.63447 1.7059 7.5541 1.62553C7.47372 1.54515 7.36472 1.5 7.25105 1.5C7.13739 1.5 7.02838 1.54515 6.94801 1.62553C6.86763 1.7059 6.82248 1.81491 6.82248 1.92857V4.07143H4.67962C4.56596 4.07143 4.45695 4.11658 4.37658 4.19696C4.2962 4.27733 4.25105 4.38634 4.25105 4.5C4.25105 4.61367 4.2962 4.72267 4.37658 4.80305C4.45695 4.88342 4.56596 4.92857 4.67962 4.92857H6.82248V7.07143C6.82248 7.18509 6.86763 7.2941 6.94801 7.37447C7.02838 7.45485 7.13739 7.5 7.25105 7.5C7.36472 7.5 7.47372 7.45485 7.5541 7.37447C7.63447 7.2941 7.67962 7.18509 7.67962 7.07143V4.92857Z" fill="#7990DA"/>
<path fill-rule="evenodd" clip-rule="evenodd" d="M4.8 12.75L8.8 9H12.8C13.2243 9 13.6313 8.84196 13.9314 8.56066C14.2314 8.27936 14.4 7.89782 14.4 7.5V1.5C14.4 1.10218 14.2314 0.720644 13.9314 0.43934C13.6313 0.158035 13.2243 0 12.8 0H1.6C1.17565 0 0.768687 0.158035 0.468629 0.43934C0.168571 0.720644 0 1.10218 0 1.5V7.5C0 7.89782 0.168571 8.27936 0.468629 8.56066C0.768687 8.84196 1.17565 9 1.6 9H4.8V12.75ZM5.8 9C5.8 8.44771 5.35228 8 4.8 8H1.6C1.42079 8 1.26088 7.93266 1.15257 7.83112C1.04645 7.73164 1 7.61102 1 7.5V1.5C1 1.38898 1.04645 1.26836 1.15257 1.16888C1.26087 1.06734 1.42079 1 1.6 1H12.8C12.9792 1 13.1391 1.06734 13.2474 1.16888C13.3535 1.26836 13.4 1.38898 13.4 1.5V7.5C13.4 7.61102 13.3535 7.73163 13.2474 7.83112C13.1391 7.93266 12.9792 8 12.8 8H8.8C8.54594 8 8.3014 8.0967 8.11606 8.27046L5.8 10.4418V9Z" fill="#7990DA"/>
</svg>
