<svg width="8" height="9" viewBox="0 0 8 9" fill="none" xmlns="http://www.w3.org/2000/svg">
<path id="Vector" d="M8 4.5V5.2C8.00018 5.54151 7.88381 5.87286 7.67014 6.13927C7.45647 6.40568 7.15828 6.5912 6.82488 6.66517C6.49147 6.73913 6.14281 6.69711 5.83652 6.54606C5.53023 6.395 5.28466 6.14395 5.1404 5.8344C4.8132 6.2424 4.336 6.5 3.8 6.5C2.7968 6.5 2 5.5968 2 4.5C2 3.4032 2.7968 2.5 3.8 2.5C4.2636 2.5 4.6832 2.6928 5.0004 3.0088L5 2.8C5.00002 2.72399 5.0289 2.65082 5.08079 2.59528C5.13268 2.53974 5.20372 2.50597 5.27955 2.50079C5.35538 2.49561 5.43036 2.51941 5.48932 2.56737C5.54828 2.61534 5.58684 2.6839 5.5972 2.7592L5.6 2.8V5.2C5.59957 5.43365 5.69002 5.6583 5.85222 5.82647C6.01443 5.99463 6.23567 6.09313 6.46918 6.10113C6.70269 6.10913 6.93016 6.02601 7.10349 5.86934C7.27683 5.71267 7.38244 5.49473 7.398 5.2616L7.4 5.2V4.5C7.3998 3.77554 7.1682 3.07009 6.73897 2.48648C6.30973 1.90288 5.70531 1.47163 5.0138 1.25561C4.3223 1.0396 3.57988 1.0501 2.89477 1.2856C2.20966 1.5211 1.61768 1.96928 1.20513 2.5648C0.792581 3.16031 0.581037 3.87204 0.601335 4.59621C0.621633 5.32038 0.872712 6.01914 1.31797 6.59062C1.76323 7.16209 2.37938 7.57641 3.07661 7.77316C3.77384 7.96991 4.51568 7.93881 5.194 7.6844C5.26853 7.65645 5.3511 7.65924 5.42357 7.69218C5.49603 7.72511 5.55245 7.78548 5.5804 7.86C5.60835 7.93453 5.60556 8.01711 5.57263 8.08957C5.53969 8.16203 5.47933 8.21845 5.4048 8.2464C4.95553 8.41448 4.47968 8.50039 4 8.5C1.7908 8.5 0 6.7092 0 4.5C0 2.2908 1.7908 0.5 4 0.5C6.172 0.5 7.9392 2.2308 7.9984 4.388L8 4.5ZM3.8 3.1C3.146 3.1 2.6 3.7192 2.6 4.5C2.6 5.2808 3.146 5.9 3.8 5.9C4.4536 5.9 5 5.2808 5 4.5C5 3.7192 4.4536 3.1 3.8 3.1Z" fill="black"/>
</svg>
