<svg width="16" height="16" viewBox="0 0 16 16" fill="none" xmlns="http://www.w3.org/2000/svg">
<g id="uil:enter">
<path id="Vector" d="M13.9987 2.66699C14.162 2.66701 14.3196 2.72696 14.4416 2.83547C14.5636 2.94398 14.6416 3.09349 14.6607 3.25566L14.6654 3.33366V7.66699C14.6654 8.2637 14.4368 8.83776 14.0267 9.27113C13.6165 9.7045 13.0558 9.96426 12.46 9.99699L12.332 10.0003H3.6087L5.80336 12.1957C5.91815 12.3105 5.9871 12.4632 5.99729 12.6252C6.00748 12.7872 5.9582 12.9474 5.8587 13.0757L5.80336 13.1383C5.68857 13.2531 5.53584 13.3221 5.37382 13.3323C5.2118 13.3424 5.05163 13.2932 4.92336 13.1937L4.8607 13.1383L1.52736 9.80499C1.50399 9.78174 1.48238 9.75678 1.4627 9.73033L1.41536 9.65699L1.37936 9.58099L1.35603 9.51099L1.33936 9.43299L1.3347 9.39299L1.33203 9.33366L1.33403 9.28366L1.34536 9.19966L1.36536 9.12566L1.3947 9.05166L1.42936 8.98633L1.47203 8.92499L1.52736 8.86233L4.8607 5.52899C4.98067 5.40943 5.14165 5.34001 5.31095 5.33484C5.48025 5.32967 5.64517 5.38914 5.77222 5.50116C5.89926 5.61318 5.9789 5.76936 5.99496 5.93797C6.01103 6.10659 5.96231 6.275 5.8587 6.40899L5.80336 6.47166L3.6087 8.66699H12.332C12.5805 8.667 12.8201 8.57449 13.0041 8.40749C13.1881 8.2405 13.3033 8.01098 13.3274 7.76366L13.332 7.66699V3.33366C13.332 3.15685 13.4023 2.98728 13.5273 2.86225C13.6523 2.73723 13.8219 2.66699 13.9987 2.66699Z" fill="black"/>
</g>
</svg>
